<svg width="26" height="24" viewBox="0 0 26 24" fill="none" xmlns="http://www.w3.org/2000/svg">
<mask id="path-1-outside-1_101_267" maskUnits="userSpaceOnUse" x="0" y="0" width="26" height="24" fill="black">
<rect fill="white" width="26" height="24"/>
<path d="M11.6154 18.0771C11.6154 18.1995 11.5668 18.3169 11.4802 18.4035C11.3936 18.4901 11.2763 18.5387 11.1538 18.5387H9.76923V22.6925C9.76923 22.8149 9.7206 22.9323 9.63405 23.0189C9.54749 23.1054 9.4301 23.1541 9.30769 23.1541C9.18528 23.1541 9.06789 23.1054 8.98133 23.0189C8.89478 22.9323 8.84615 22.8149 8.84615 22.6925V18.5387H7.46154C7.33913 18.5387 7.22174 18.4901 7.13518 18.4035C7.04863 18.3169 7 18.1995 7 18.0771C7 17.9547 7.04863 17.8373 7.13518 17.7508C7.22174 17.6642 7.33913 17.6156 7.46154 17.6156H11.1538C11.2763 17.6156 11.3936 17.6642 11.4802 17.7508C11.5668 17.8373 11.6154 17.9547 11.6154 18.0771ZM4.69231 17.6156C4.5699 17.6156 4.45251 17.6642 4.36595 17.7508C4.2794 17.8373 4.23077 17.9547 4.23077 18.0771V19.9233H1.92308V18.0771C1.92308 17.9547 1.87445 17.8373 1.7879 17.7508C1.70134 17.6642 1.58395 17.6156 1.46154 17.6156C1.33913 17.6156 1.22174 17.6642 1.13518 17.7508C1.04863 17.8373 1 17.9547 1 18.0771V22.6925C1 22.8149 1.04863 22.9323 1.13518 23.0189C1.22174 23.1054 1.33913 23.1541 1.46154 23.1541C1.58395 23.1541 1.70134 23.1054 1.7879 23.0189C1.87445 22.9323 1.92308 22.8149 1.92308 22.6925V20.8464H4.23077V22.6925C4.23077 22.8149 4.2794 22.9323 4.36595 23.0189C4.45251 23.1054 4.5699 23.1541 4.69231 23.1541C4.81472 23.1541 4.93211 23.1054 5.01867 23.0189C5.10522 22.9323 5.15385 22.8149 5.15385 22.6925V18.0771C5.15385 17.9547 5.10522 17.8373 5.01867 17.7508C4.93211 17.6642 4.81472 17.6156 4.69231 17.6156ZM24.5385 22.231H22.2308V18.0771C22.2308 17.9547 22.1821 17.8373 22.0956 17.7508C22.009 17.6642 21.8916 17.6156 21.7692 17.6156C21.6468 17.6156 21.5294 17.6642 21.4429 17.7508C21.3563 17.8373 21.3077 17.9547 21.3077 18.0771V22.6925C21.3077 22.8149 21.3563 22.9323 21.4429 23.0189C21.5294 23.1054 21.6468 23.1541 21.7692 23.1541H24.5385C24.6609 23.1541 24.7783 23.1054 24.8648 23.0189C24.9514 22.9323 25 22.8149 25 22.6925C25 22.5701 24.9514 22.4527 24.8648 22.3662C24.7783 22.2796 24.6609 22.231 24.5385 22.231ZM18.6769 17.6387C18.583 17.6118 18.4832 17.614 18.3905 17.6449C18.2979 17.6758 18.2167 17.7339 18.1577 17.8118L16.2308 20.5118L14.3038 17.8118C14.2448 17.7339 14.1637 17.6758 14.071 17.6449C13.9783 17.614 13.8785 17.6118 13.7846 17.6387C13.6912 17.668 13.6096 17.7264 13.5515 17.8052C13.4934 17.884 13.4619 17.9792 13.4615 18.0771V22.6925C13.4615 22.8149 13.5102 22.9323 13.5967 23.0189C13.6833 23.1054 13.8007 23.1541 13.9231 23.1541C14.0455 23.1541 14.1629 23.1054 14.2494 23.0189C14.336 22.9323 14.3846 22.8149 14.3846 22.6925V19.5194L15.85 21.5733C15.894 21.6329 15.9513 21.6814 16.0175 21.7148C16.0836 21.7482 16.1567 21.7656 16.2308 21.7656C16.3049 21.7656 16.3779 21.7482 16.4441 21.7148C16.5102 21.6814 16.5676 21.6329 16.6115 21.5733L18.0769 19.5194V22.6925C18.0769 22.8149 18.1255 22.9323 18.2121 23.0189C18.2987 23.1054 18.4161 23.1541 18.5385 23.1541C18.6609 23.1541 18.7783 23.1054 18.8648 23.0189C18.9514 22.9323 19 22.8149 19 22.6925V18.0771C18.9996 17.9792 18.9681 17.884 18.91 17.8052C18.852 17.7264 18.7703 17.668 18.6769 17.6387ZM21.3077 13.9233C21.1853 13.9233 21.0679 13.8747 20.9813 13.7881C20.8948 13.7016 20.8462 13.5842 20.8462 13.4618V8.38483H14.8462C14.7237 8.38483 14.6064 8.3362 14.5198 8.24965C14.4332 8.16309 14.3846 8.0457 14.3846 7.92329V1.92329H3.76923C3.64682 1.92329 3.52943 1.97192 3.44287 2.05847C3.35632 2.14503 3.30769 2.26242 3.30769 2.38483V13.4618C3.30769 13.5842 3.25907 13.7016 3.17251 13.7881C3.08596 13.8747 2.96856 13.9233 2.84615 13.9233C2.72375 13.9233 2.60635 13.8747 2.5198 13.7881C2.43324 13.7016 2.38462 13.5842 2.38462 13.4618V2.38483C2.38462 2.0176 2.53049 1.66542 2.79016 1.40576C3.04983 1.14609 3.40201 1.00021 3.76923 1.00021H14.8462C14.9069 0.998271 14.9672 1.00966 15.0231 1.03359C15.0789 1.05751 15.1288 1.09338 15.1692 1.13867L21.6308 7.58867C21.7156 7.67998 21.7647 7.79875 21.7692 7.92329V13.4618C21.7692 13.5842 21.7206 13.7016 21.634 13.7881C21.5475 13.8747 21.4301 13.9233 21.3077 13.9233ZM15.3077 7.46175H20.1885L15.3077 2.58098V7.46175Z"/>
</mask>
<path d="M11.6154 18.0771C11.6154 18.1995 11.5668 18.3169 11.4802 18.4035C11.3936 18.4901 11.2763 18.5387 11.1538 18.5387H9.76923V22.6925C9.76923 22.8149 9.7206 22.9323 9.63405 23.0189C9.54749 23.1054 9.4301 23.1541 9.30769 23.1541C9.18528 23.1541 9.06789 23.1054 8.98133 23.0189C8.89478 22.9323 8.84615 22.8149 8.84615 22.6925V18.5387H7.46154C7.33913 18.5387 7.22174 18.4901 7.13518 18.4035C7.04863 18.3169 7 18.1995 7 18.0771C7 17.9547 7.04863 17.8373 7.13518 17.7508C7.22174 17.6642 7.33913 17.6156 7.46154 17.6156H11.1538C11.2763 17.6156 11.3936 17.6642 11.4802 17.7508C11.5668 17.8373 11.6154 17.9547 11.6154 18.0771ZM4.69231 17.6156C4.5699 17.6156 4.45251 17.6642 4.36595 17.7508C4.2794 17.8373 4.23077 17.9547 4.23077 18.0771V19.9233H1.92308V18.0771C1.92308 17.9547 1.87445 17.8373 1.7879 17.7508C1.70134 17.6642 1.58395 17.6156 1.46154 17.6156C1.33913 17.6156 1.22174 17.6642 1.13518 17.7508C1.04863 17.8373 1 17.9547 1 18.0771V22.6925C1 22.8149 1.04863 22.9323 1.13518 23.0189C1.22174 23.1054 1.33913 23.1541 1.46154 23.1541C1.58395 23.1541 1.70134 23.1054 1.7879 23.0189C1.87445 22.9323 1.92308 22.8149 1.92308 22.6925V20.8464H4.23077V22.6925C4.23077 22.8149 4.2794 22.9323 4.36595 23.0189C4.45251 23.1054 4.5699 23.1541 4.69231 23.1541C4.81472 23.1541 4.93211 23.1054 5.01867 23.0189C5.10522 22.9323 5.15385 22.8149 5.15385 22.6925V18.0771C5.15385 17.9547 5.10522 17.8373 5.01867 17.7508C4.93211 17.6642 4.81472 17.6156 4.69231 17.6156ZM24.5385 22.231H22.2308V18.0771C22.2308 17.9547 22.1821 17.8373 22.0956 17.7508C22.009 17.6642 21.8916 17.6156 21.7692 17.6156C21.6468 17.6156 21.5294 17.6642 21.4429 17.7508C21.3563 17.8373 21.3077 17.9547 21.3077 18.0771V22.6925C21.3077 22.8149 21.3563 22.9323 21.4429 23.0189C21.5294 23.1054 21.6468 23.1541 21.7692 23.1541H24.5385C24.6609 23.1541 24.7783 23.1054 24.8648 23.0189C24.9514 22.9323 25 22.8149 25 22.6925C25 22.5701 24.9514 22.4527 24.8648 22.3662C24.7783 22.2796 24.6609 22.231 24.5385 22.231ZM18.6769 17.6387C18.583 17.6118 18.4832 17.614 18.3905 17.6449C18.2979 17.6758 18.2167 17.7339 18.1577 17.8118L16.2308 20.5118L14.3038 17.8118C14.2448 17.7339 14.1637 17.6758 14.071 17.6449C13.9783 17.614 13.8785 17.6118 13.7846 17.6387C13.6912 17.668 13.6096 17.7264 13.5515 17.8052C13.4934 17.884 13.4619 17.9792 13.4615 18.0771V22.6925C13.4615 22.8149 13.5102 22.9323 13.5967 23.0189C13.6833 23.1054 13.8007 23.1541 13.9231 23.1541C14.0455 23.1541 14.1629 23.1054 14.2494 23.0189C14.336 22.9323 14.3846 22.8149 14.3846 22.6925V19.5194L15.85 21.5733C15.894 21.6329 15.9513 21.6814 16.0175 21.7148C16.0836 21.7482 16.1567 21.7656 16.2308 21.7656C16.3049 21.7656 16.3779 21.7482 16.4441 21.7148C16.5102 21.6814 16.5676 21.6329 16.6115 21.5733L18.0769 19.5194V22.6925C18.0769 22.8149 18.1255 22.9323 18.2121 23.0189C18.2987 23.1054 18.4161 23.1541 18.5385 23.1541C18.6609 23.1541 18.7783 23.1054 18.8648 23.0189C18.9514 22.9323 19 22.8149 19 22.6925V18.0771C18.9996 17.9792 18.9681 17.884 18.91 17.8052C18.852 17.7264 18.7703 17.668 18.6769 17.6387ZM21.3077 13.9233C21.1853 13.9233 21.0679 13.8747 20.9813 13.7881C20.8948 13.7016 20.8462 13.5842 20.8462 13.4618V8.38483H14.8462C14.7237 8.38483 14.6064 8.3362 14.5198 8.24965C14.4332 8.16309 14.3846 8.0457 14.3846 7.92329V1.92329H3.76923C3.64682 1.92329 3.52943 1.97192 3.44287 2.05847C3.35632 2.14503 3.30769 2.26242 3.30769 2.38483V13.4618C3.30769 13.5842 3.25907 13.7016 3.17251 13.7881C3.08596 13.8747 2.96856 13.9233 2.84615 13.9233C2.72375 13.9233 2.60635 13.8747 2.5198 13.7881C2.43324 13.7016 2.38462 13.5842 2.38462 13.4618V2.38483C2.38462 2.0176 2.53049 1.66542 2.79016 1.40576C3.04983 1.14609 3.40201 1.00021 3.76923 1.00021H14.8462C14.9069 0.998271 14.9672 1.00966 15.0231 1.03359C15.0789 1.05751 15.1288 1.09338 15.1692 1.13867L21.6308 7.58867C21.7156 7.67998 21.7647 7.79875 21.7692 7.92329V13.4618C21.7692 13.5842 21.7206 13.7016 21.634 13.7881C21.5475 13.8747 21.4301 13.9233 21.3077 13.9233ZM15.3077 7.46175H20.1885L15.3077 2.58098V7.46175Z" fill="white"/>
<path d="M11.6154 18.0771C11.6154 18.1995 11.5668 18.3169 11.4802 18.4035C11.3936 18.4901 11.2763 18.5387 11.1538 18.5387H9.76923V22.6925C9.76923 22.8149 9.7206 22.9323 9.63405 23.0189C9.54749 23.1054 9.4301 23.1541 9.30769 23.1541C9.18528 23.1541 9.06789 23.1054 8.98133 23.0189C8.89478 22.9323 8.84615 22.8149 8.84615 22.6925V18.5387H7.46154C7.33913 18.5387 7.22174 18.4901 7.13518 18.4035C7.04863 18.3169 7 18.1995 7 18.0771C7 17.9547 7.04863 17.8373 7.13518 17.7508C7.22174 17.6642 7.33913 17.6156 7.46154 17.6156H11.1538C11.2763 17.6156 11.3936 17.6642 11.4802 17.7508C11.5668 17.8373 11.6154 17.9547 11.6154 18.0771ZM4.69231 17.6156C4.5699 17.6156 4.45251 17.6642 4.36595 17.7508C4.2794 17.8373 4.23077 17.9547 4.23077 18.0771V19.9233H1.92308V18.0771C1.92308 17.9547 1.87445 17.8373 1.7879 17.7508C1.70134 17.6642 1.58395 17.6156 1.46154 17.6156C1.33913 17.6156 1.22174 17.6642 1.13518 17.7508C1.04863 17.8373 1 17.9547 1 18.0771V22.6925C1 22.8149 1.04863 22.9323 1.13518 23.0189C1.22174 23.1054 1.33913 23.1541 1.46154 23.1541C1.58395 23.1541 1.70134 23.1054 1.7879 23.0189C1.87445 22.9323 1.92308 22.8149 1.92308 22.6925V20.8464H4.23077V22.6925C4.23077 22.8149 4.2794 22.9323 4.36595 23.0189C4.45251 23.1054 4.5699 23.1541 4.69231 23.1541C4.81472 23.1541 4.93211 23.1054 5.01867 23.0189C5.10522 22.9323 5.15385 22.8149 5.15385 22.6925V18.0771C5.15385 17.9547 5.10522 17.8373 5.01867 17.7508C4.93211 17.6642 4.81472 17.6156 4.69231 17.6156ZM24.5385 22.231H22.2308V18.0771C22.2308 17.9547 22.1821 17.8373 22.0956 17.7508C22.009 17.6642 21.8916 17.6156 21.7692 17.6156C21.6468 17.6156 21.5294 17.6642 21.4429 17.7508C21.3563 17.8373 21.3077 17.9547 21.3077 18.0771V22.6925C21.3077 22.8149 21.3563 22.9323 21.4429 23.0189C21.5294 23.1054 21.6468 23.1541 21.7692 23.1541H24.5385C24.6609 23.1541 24.7783 23.1054 24.8648 23.0189C24.9514 22.9323 25 22.8149 25 22.6925C25 22.5701 24.9514 22.4527 24.8648 22.3662C24.7783 22.2796 24.6609 22.231 24.5385 22.231ZM18.6769 17.6387C18.583 17.6118 18.4832 17.614 18.3905 17.6449C18.2979 17.6758 18.2167 17.7339 18.1577 17.8118L16.2308 20.5118L14.3038 17.8118C14.2448 17.7339 14.1637 17.6758 14.071 17.6449C13.9783 17.614 13.8785 17.6118 13.7846 17.6387C13.6912 17.668 13.6096 17.7264 13.5515 17.8052C13.4934 17.884 13.4619 17.9792 13.4615 18.0771V22.6925C13.4615 22.8149 13.5102 22.9323 13.5967 23.0189C13.6833 23.1054 13.8007 23.1541 13.9231 23.1541C14.0455 23.1541 14.1629 23.1054 14.2494 23.0189C14.336 22.9323 14.3846 22.8149 14.3846 22.6925V19.5194L15.85 21.5733C15.894 21.6329 15.9513 21.6814 16.0175 21.7148C16.0836 21.7482 16.1567 21.7656 16.2308 21.7656C16.3049 21.7656 16.3779 21.7482 16.4441 21.7148C16.5102 21.6814 16.5676 21.6329 16.6115 21.5733L18.0769 19.5194V22.6925C18.0769 22.8149 18.1255 22.9323 18.2121 23.0189C18.2987 23.1054 18.4161 23.1541 18.5385 23.1541C18.6609 23.1541 18.7783 23.1054 18.8648 23.0189C18.9514 22.9323 19 22.8149 19 22.6925V18.0771C18.9996 17.9792 18.9681 17.884 18.91 17.8052C18.852 17.7264 18.7703 17.668 18.6769 17.6387ZM21.3077 13.9233C21.1853 13.9233 21.0679 13.8747 20.9813 13.7881C20.8948 13.7016 20.8462 13.5842 20.8462 13.4618V8.38483H14.8462C14.7237 8.38483 14.6064 8.3362 14.5198 8.24965C14.4332 8.16309 14.3846 8.0457 14.3846 7.92329V1.92329H3.76923C3.64682 1.92329 3.52943 1.97192 3.44287 2.05847C3.35632 2.14503 3.30769 2.26242 3.30769 2.38483V13.4618C3.30769 13.5842 3.25907 13.7016 3.17251 13.7881C3.08596 13.8747 2.96856 13.9233 2.84615 13.9233C2.72375 13.9233 2.60635 13.8747 2.5198 13.7881C2.43324 13.7016 2.38462 13.5842 2.38462 13.4618V2.38483C2.38462 2.0176 2.53049 1.66542 2.79016 1.40576C3.04983 1.14609 3.40201 1.00021 3.76923 1.00021H14.8462C14.9069 0.998271 14.9672 1.00966 15.0231 1.03359C15.0789 1.05751 15.1288 1.09338 15.1692 1.13867L21.6308 7.58867C21.7156 7.67998 21.7647 7.79875 21.7692 7.92329V13.4618C21.7692 13.5842 21.7206 13.7016 21.634 13.7881C21.5475 13.8747 21.4301 13.9233 21.3077 13.9233ZM15.3077 7.46175H20.1885L15.3077 2.58098V7.46175Z" stroke="white" stroke-width="0.4" mask="url(#path-1-outside-1_101_267)"/>
</svg>
