<svg width="23" height="24" viewBox="0 0 23 24" fill="none" xmlns="http://www.w3.org/2000/svg">
<path d="M4.5 3C4.5 2.20435 4.81607 1.44129 5.37868 0.87868C5.94129 0.31607 6.70435 0 7.5 0H14.379C14.9755 0.000525156 15.5474 0.237923 15.969 0.66L21.8415 6.531C22.263 6.9528 22.4999 7.52468 22.5 8.121V21C22.5 21.7956 22.1839 22.5587 21.6213 23.1213C21.0587 23.6839 20.2956 24 19.5 24H11.25C11.5785 23.565 11.8125 23.055 11.925 22.5H19.5C19.8978 22.5 20.2794 22.342 20.5607 22.0607C20.842 21.7794 21 21.3978 21 21V9H15.75C15.1533 9 14.581 8.76295 14.159 8.34099C13.7371 7.91903 13.5 7.34674 13.5 6.75V1.5H7.5C7.10218 1.5 6.72064 1.65804 6.43934 1.93934C6.15804 2.22064 6 2.60218 6 3V14.25C5.8785 14.3415 5.76 14.4405 5.652 14.547C5.38178 14.1202 4.97612 13.7964 4.5 13.6275V3ZM15.75 7.5H20.6895L15 1.8105V6.75C15 6.94891 15.079 7.13968 15.2197 7.28033C15.3603 7.42098 15.5511 7.5 15.75 7.5ZM3.75 15C3.55109 15 3.36032 15.079 3.21967 15.2197C3.07902 15.3603 3 15.5511 3 15.75V21.75C3 21.9489 2.92098 22.1397 2.78033 22.2803C2.63968 22.421 2.44891 22.5 2.25 22.5C2.05109 22.5 1.86032 22.421 1.71967 22.2803C1.57902 22.1397 1.5 21.9489 1.5 21.75V21C1.5 20.8011 1.42098 20.6103 1.28033 20.4697C1.13968 20.329 0.948912 20.25 0.75 20.25C0.551088 20.25 0.360322 20.329 0.21967 20.4697C0.0790176 20.6103 0 20.8011 0 21V21.75C0 22.3467 0.237053 22.919 0.65901 23.341C1.08097 23.7629 1.65326 24 2.25 24C2.84674 24 3.41903 23.7629 3.84099 23.341C4.26295 22.919 4.5 22.3467 4.5 21.75V15.75C4.5 15.5511 4.42098 15.3603 4.28033 15.2197C4.13968 15.079 3.94891 15 3.75 15ZM6 17.25C6 16.6533 6.23705 16.081 6.65901 15.659C7.08097 15.2371 7.65326 15 8.25 15C8.84674 15 9.41903 15.2371 9.84099 15.659C10.2629 16.081 10.5 16.6533 10.5 17.25C10.5 17.4489 10.421 17.6397 10.2803 17.7803C10.1397 17.921 9.94891 18 9.75 18C9.55109 18 9.36032 17.921 9.21967 17.7803C9.07902 17.6397 9 17.4489 9 17.25C9 17.0511 8.92098 16.8603 8.78033 16.7197C8.63968 16.579 8.44891 16.5 8.25 16.5C8.05109 16.5 7.86032 16.579 7.71967 16.7197C7.57902 16.8603 7.5 17.0511 7.5 17.25V17.823C7.5 17.9622 7.53873 18.0986 7.61185 18.217C7.68496 18.3354 7.78958 18.4312 7.914 18.4935L9.2565 19.164C9.63027 19.3509 9.94459 19.6383 10.1642 19.9938C10.3839 20.3494 10.5001 20.7591 10.5 21.177V21.75C10.5 22.3467 10.2629 22.919 9.84099 23.341C9.41903 23.7629 8.84674 24 8.25 24C7.65326 24 7.08097 23.7629 6.65901 23.341C6.23705 22.919 6 22.3467 6 21.75C6 21.5511 6.07902 21.3603 6.21967 21.2197C6.36032 21.079 6.55109 21 6.75 21C6.94891 21 7.13968 21.079 7.28033 21.2197C7.42098 21.3603 7.5 21.5511 7.5 21.75C7.5 21.9489 7.57902 22.1397 7.71967 22.2803C7.86032 22.421 8.05109 22.5 8.25 22.5C8.44891 22.5 8.63968 22.421 8.78033 22.2803C8.92098 22.1397 9 21.9489 9 21.75V21.177C9 21.0378 8.96127 20.9014 8.88815 20.783C8.81504 20.6646 8.71042 20.5688 8.586 20.5065L7.2435 19.836C6.86973 19.6491 6.55541 19.3617 6.33578 19.0062C6.11615 18.6506 5.99988 18.2409 6 17.823V17.25Z" fill="white"/>
</svg>
