<svg width="18" height="27" viewBox="0 0 18 27" fill="none" xmlns="http://www.w3.org/2000/svg">
<path d="M14.8544 0.9H14.8539L3.3886 0.899999L3.3881 0.900001C2.72923 0.903271 2.09827 1.16646 1.63236 1.63236C1.16646 2.09827 0.903271 2.72923 0.9 3.3881V3.3886L0.899999 24.4083L0.900001 24.4088C0.903271 25.0676 1.16646 25.6986 1.63236 26.1645C2.09827 26.6304 2.72923 26.8936 3.3881 26.8969H3.3886H14.8539L14.8544 26.8969C15.5133 26.8936 16.1442 26.6304 16.6101 26.1645C17.076 25.6986 17.3392 25.0676 17.3425 24.4088V24.4083V3.3886L17.3425 3.3881C17.3392 2.72923 17.076 2.09827 16.6101 1.63236C16.1442 1.16646 15.5133 0.903271 14.8544 0.9ZM2.05544 5.8772H16.187V21.9197H2.05544V5.8772ZM3.3886 2.05544H14.8539C15.2075 2.05544 15.5465 2.1959 15.7966 2.44591C16.0466 2.69593 16.187 3.03502 16.187 3.3886V4.72176H2.05544V3.3886C2.05544 3.03502 2.1959 2.69593 2.44591 2.44591C2.69593 2.1959 3.03502 2.05544 3.3886 2.05544ZM14.8539 25.7414H3.3886C3.03502 25.7414 2.69593 25.601 2.44591 25.351C2.1959 25.1009 2.05544 24.7619 2.05544 24.4083V23.0751H16.187V24.4083C16.187 24.7619 16.0466 25.1009 15.7966 25.351C15.5465 25.601 15.2075 25.7414 14.8539 25.7414Z" fill="white" stroke="white" stroke-width="0.2"/>
</svg>
