<svg width="26" height="28" viewBox="0 0 26 28" fill="none" xmlns="http://www.w3.org/2000/svg">
<path d="M12.66 27.1674C10.3915 27.1674 8.36755 25.1298 7.09069 21.6388C6.9956 21.3671 7.13144 21.0547 7.4167 20.9732C7.68837 20.8645 7.98721 21.014 8.0823 21.2856C9.18258 24.3148 10.8941 26.1214 12.66 26.1214C13.9369 26.1214 15.2001 25.1977 16.2189 23.5134C16.2928 23.3983 16.4086 23.3165 16.5419 23.2856C16.6751 23.2548 16.8151 23.2771 16.9321 23.348C17.049 23.4189 17.1336 23.5327 17.1679 23.6651C17.2022 23.7975 17.1833 23.938 17.1154 24.0567C15.8929 26.0671 14.3172 27.1674 12.66 27.1674ZM17.9712 21.3536C17.9203 21.3523 17.8699 21.3432 17.8218 21.3264C17.5365 21.2313 17.4143 20.9461 17.4686 20.6608C18.0935 18.7591 18.3923 16.5449 18.3923 14.2629C18.3923 9.03315 16.6944 4.40112 14.2765 2.90691C13.9369 3.39592 13.3392 3.77627 12.66 3.77627C11.6276 3.77627 10.7719 2.93408 10.7719 1.88813C10.7719 0.842189 11.6276 0 12.66 0C13.7059 0 14.5617 0.828605 14.5753 1.86097C17.455 3.39592 19.4518 8.43547 19.4518 14.2629C19.4518 16.64 19.1123 18.9628 18.4738 20.9868C18.4059 21.2041 18.2021 21.3536 17.9712 21.3536ZM12.66 1.04594C12.1982 1.04594 11.8178 1.42629 11.8178 1.88813C11.8178 2.34998 12.2117 2.71674 12.66 2.71674C13.1354 2.71674 13.5294 2.34998 13.5294 1.88813C13.5294 1.42629 13.1354 1.04594 12.66 1.04594ZM1.90172 22.4674C0.855772 22.4674 0 21.6117 0 20.5793C0 19.9137 0.353176 19.316 0.88294 18.9764C0.692768 15.7027 4.07511 11.4239 9.26408 8.44906C11.4239 7.22652 13.6788 6.34358 15.8114 5.89532C16.0559 5.8274 16.3683 6.00399 16.4227 6.28925C16.4906 6.57451 16.314 6.85976 16.0559 6.9141C14.0184 7.34878 11.8586 8.19097 9.80742 9.35916C5.13463 12.0352 1.92888 15.8658 1.92888 18.6912C2.96124 18.7047 3.8306 19.5469 3.8306 20.5793C3.8306 21.6252 2.94766 22.4674 1.90172 22.4674ZM1.90172 19.7371C1.43987 19.7371 1.05953 20.1174 1.05953 20.5793C1.05953 21.0547 1.43987 21.4215 1.90172 21.4215C2.36356 21.4215 2.75749 21.0547 2.75749 20.5793C2.75749 20.1174 2.36356 19.7371 1.90172 19.7371ZM21.4894 15.5397C21.3943 15.5397 21.2721 15.499 21.177 15.4175C21.0717 15.325 21.0069 15.1948 20.9968 15.0551C20.9866 14.9153 21.0318 14.7771 21.1226 14.6704C23.2145 12.2253 23.9345 9.86176 23.0379 8.34039C22.3995 7.24011 20.9461 6.62884 18.9492 6.60167C18.6504 6.60167 18.4195 6.35717 18.4331 6.07191C18.4331 5.78665 18.6776 5.56931 18.9628 5.55573C21.34 5.5829 23.1194 6.38434 23.948 7.81062C25.0891 9.76667 24.342 12.5106 21.9241 15.3496C21.8154 15.4718 21.666 15.5397 21.4894 15.5397ZM18.7727 22.9564C16.0559 22.9564 12.5785 21.9512 9.26408 20.0631C7.15861 18.8542 5.28406 17.3735 3.8306 15.7978C3.73567 15.6966 3.68284 15.563 3.68284 15.4243C3.68284 15.2855 3.73567 15.1519 3.8306 15.0507C4.07511 14.8606 4.40112 14.8741 4.60487 15.0915C5.97682 16.5857 7.76987 17.9984 9.79384 19.153C14.29 21.7339 19.1394 22.5897 21.6932 21.3536C21.5845 21.1226 21.4894 20.851 21.4894 20.5793C21.4894 19.5333 22.3723 18.6912 23.4183 18.6912C24.4642 18.6912 25.32 19.5333 25.32 20.5793C25.3188 20.9192 25.2263 21.2525 25.0522 21.5443C24.878 21.8362 24.6287 22.0759 24.3301 22.2383C24.0316 22.4008 23.6949 22.48 23.3553 22.4677C23.0156 22.4555 22.6855 22.3521 22.3995 22.1686C21.4486 22.6983 20.2125 22.9564 18.7727 22.9564ZM22.8478 21.2313C23.0244 21.34 23.2145 21.4215 23.4183 21.4215C23.6416 21.4215 23.8559 21.3328 24.0138 21.1748C24.1717 21.0169 24.2605 20.8027 24.2605 20.5793C24.2605 20.3559 24.1717 20.1417 24.0138 19.9838C23.8559 19.8258 23.6416 19.7371 23.4183 19.7371C22.9429 19.7371 22.5761 20.1174 22.5761 20.5793C22.5761 20.7695 22.644 20.9461 22.7527 21.0955C22.807 21.1226 22.8478 21.177 22.8478 21.2313ZM2.4179 13.5837C2.24131 13.5837 2.06472 13.475 1.96964 13.312C0.747103 11.2065 0.543348 9.25049 1.38554 7.79704C2.52657 5.84099 5.29764 5.10747 9.00599 5.77307C9.26408 5.8274 9.48142 6.11266 9.42708 6.38433C9.38633 6.66959 9.11466 6.85976 8.8294 6.79185C5.62365 6.23491 3.15142 6.79185 2.29564 8.3268C1.64363 9.44067 1.84738 11.0164 2.87974 12.7823C3.01558 13.0403 2.93408 13.3528 2.67599 13.5022C2.59449 13.5429 2.51298 13.5837 2.4179 13.5837ZM12.9453 15.4854C12.621 15.5575 12.2814 15.4978 12.0012 15.3194C11.721 15.1411 11.5231 14.8588 11.4511 14.5345C11.379 14.2103 11.4387 13.8707 11.617 13.5905C11.7953 13.3103 12.0777 13.1124 12.4019 13.0403C13.0811 12.9045 13.7603 13.3256 13.8961 14.0048C14.0184 14.6704 13.6109 15.336 12.9453 15.4854Z" fill="white"/>
</svg>
