<svg width="582" height="717" viewBox="0 0 582 717" fill="none" xmlns="http://www.w3.org/2000/svg">
<path d="M777.715 439.25H501.127V33.2517H777.715V439.25ZM508.568 431.81H770.274V40.6924H508.568V431.81Z" fill="#EBEBEB"/>
<path d="M784.467 48.2998H494.375V58.6609H784.467V48.2998Z" fill="#EBEBEB"/>
<path d="M784.467 59.9446H494.375V70.3057H784.467V59.9446Z" fill="#EBEBEB"/>
<path d="M784.467 71.6077H494.375V81.9688H784.467V71.6077Z" fill="#EBEBEB"/>
<path d="M784.467 83.2715H494.375V93.6326H784.467V83.2715Z" fill="#EBEBEB"/>
<path d="M784.467 94.916H494.375V105.277H784.467V94.916Z" fill="#EBEBEB"/>
<path d="M784.467 106.578H494.375V116.939H784.467V106.578Z" fill="#EBEBEB"/>
<path d="M784.467 118.242H494.375V128.603H784.467V118.242Z" fill="#EBEBEB"/>
<path d="M784.467 129.886H494.375V140.248H784.467V129.886Z" fill="#EBEBEB"/>
<path d="M784.467 141.55H494.375V151.911H784.467V141.55Z" fill="#EBEBEB"/>
<path d="M796 31.8005H482.823V53.4714H796V31.8005Z" fill="#DBDBDB"/>
<path d="M48.0852 244.585C48.0852 243.022 48.2898 238.874 48.2898 237.144C48.2898 229.573 45.5925 226.169 38.5425 225.983C37.8635 226.025 37.1831 225.927 36.5434 225.695C35.9036 225.464 35.3179 225.104 34.8224 224.638C34.3269 224.172 33.932 223.609 33.6621 222.985C33.3922 222.361 33.2529 221.687 33.2529 221.007C33.2529 220.327 33.3922 219.654 33.6621 219.029C33.932 218.405 34.3269 217.842 34.8224 217.376C35.3179 216.91 35.9036 216.55 36.5434 216.319C37.1831 216.088 37.8635 215.99 38.5425 216.031C45.5925 215.734 48.2898 212.404 48.2898 204.74C48.2898 202.88 48.0852 198.825 48.0852 197.299C48.0852 187.254 52.3449 180.818 68.4167 177.303C69.5194 177.018 70.6888 177.164 71.6878 177.711C72.6867 178.257 73.4402 179.164 73.7953 180.246C74.1504 181.327 74.0805 182.504 73.5998 183.536C73.1191 184.568 72.2636 185.379 71.207 185.804C61.1435 188.91 59.6926 192.128 59.6926 199.178C59.6926 201.243 59.9158 204.666 59.9158 206.842C59.9158 214.934 55.9722 218.877 49.1268 221.054C56.0652 223.323 59.9158 227.174 59.9158 235.247C59.9158 237.442 59.6926 240.827 59.6926 242.929C59.6926 249.979 61.1435 253.197 71.207 256.304C72.2636 256.728 73.1191 257.539 73.5998 258.571C74.0805 259.603 74.1504 260.78 73.7953 261.862C73.4402 262.943 72.6867 263.85 71.6878 264.396C70.6888 264.943 69.5194 265.089 68.4167 264.805C52.3263 261.177 48.0852 254.723 48.0852 244.585Z" fill="#EBEBEB"/>
<path d="M108.819 197.187C108.819 198.75 108.615 202.898 108.615 204.628C108.615 212.291 111.424 215.621 118.474 215.919C119.153 215.877 119.833 215.975 120.473 216.206C121.113 216.438 121.698 216.797 122.194 217.264C122.689 217.73 123.084 218.292 123.354 218.917C123.624 219.541 123.763 220.214 123.763 220.895C123.763 221.575 123.624 222.248 123.354 222.873C123.084 223.497 122.689 224.06 122.194 224.526C121.698 224.992 121.113 225.352 120.473 225.583C119.833 225.814 119.153 225.912 118.474 225.871C111.424 226.094 108.615 229.591 108.615 237.032C108.615 238.799 108.819 242.947 108.819 244.472C108.819 254.629 104.578 261.065 88.5064 264.581C87.3977 264.875 86.2183 264.731 85.2127 264.179C84.2072 263.627 83.4527 262.709 83.1058 261.616C82.7589 260.522 82.8461 259.337 83.3495 258.307C83.8528 257.276 84.7336 256.478 85.8092 256.08C95.761 252.973 97.212 249.755 97.212 242.705C97.212 240.622 97.0074 237.218 97.0074 235.023C97.0074 226.95 100.951 223.006 107.796 220.83C100.839 218.542 97.0074 214.71 97.0074 206.618C97.0074 204.442 97.212 201.038 97.212 198.954C97.212 191.904 95.761 188.686 85.8092 185.58C84.7336 185.181 83.8528 184.383 83.3495 183.353C82.8461 182.322 82.7589 181.137 83.1058 180.043C83.4527 178.95 84.2072 178.032 85.2127 177.48C86.2183 176.928 87.3977 176.784 88.5064 177.079C104.578 180.706 108.819 187.142 108.819 197.187Z" fill="#EBEBEB"/>
<path d="M322.626 99.8639C323.485 100.709 324.073 101.79 324.316 102.97C324.559 104.15 324.446 105.376 323.992 106.492C323.538 107.608 322.762 108.563 321.764 109.238C320.766 109.913 319.59 110.276 318.385 110.281C316.736 110.295 315.145 109.676 313.939 108.551L286.818 81.0391C286.521 81.0391 286.428 80.7414 286.335 80.4624C286.243 80.3838 286.143 80.3152 286.037 80.2578C285.903 80.0202 285.809 79.7627 285.758 79.4951C285.682 79.457 285.615 79.402 285.564 79.3343C285.512 79.2666 285.477 79.188 285.46 79.1045C285.367 78.9185 285.367 78.6208 285.274 78.5278C285.181 78.4348 285.088 78.1372 285.088 78.0442V77.3745C285.088 77.1699 284.977 77.0769 284.977 76.7979C284.977 76.5189 285.088 76.4072 285.088 76.3142V75.626C285.088 75.44 285.274 75.347 285.274 75.2539C285.274 75.1609 285.367 74.7703 285.46 74.4727C285.553 74.1751 285.572 74.4727 285.572 74.2867C285.703 73.9833 285.859 73.691 286.037 73.4124C286.037 73.3863 286.042 73.3605 286.053 73.3366C286.063 73.3128 286.078 73.2914 286.098 73.2738C286.117 73.2563 286.14 73.243 286.165 73.2348C286.189 73.2267 286.216 73.2238 286.242 73.2264C286.37 72.9502 286.569 72.7128 286.818 72.5381L313.939 45.0449C315.109 43.9272 316.665 43.3035 318.283 43.3035C319.901 43.3035 321.456 43.9272 322.626 45.0449C323.197 45.6151 323.65 46.2921 323.959 47.0374C324.268 47.7827 324.427 48.5816 324.427 49.3884C324.427 50.1952 324.268 50.9941 323.959 51.7394C323.65 52.4847 323.197 53.1618 322.626 53.7319L299.746 76.7979L322.626 99.8639Z" fill="#EBEBEB"/>
<path d="M347.236 102.953L370.879 46.6828C371.443 45.3772 372.502 44.3484 373.824 43.822C375.145 43.2955 376.621 43.3142 377.929 43.8739C379.195 44.429 380.189 45.4628 380.694 46.7492C381.2 48.0355 381.175 49.4696 380.626 50.7379L356.983 107.101C356.56 108.053 355.868 108.861 354.993 109.426C354.117 109.991 353.096 110.288 352.054 110.282C351.413 110.288 350.778 110.154 350.194 109.891C349.533 109.644 348.93 109.265 348.42 108.778C347.91 108.29 347.505 107.704 347.229 107.056C346.952 106.407 346.81 105.709 346.811 105.003C346.813 104.298 346.957 103.6 347.236 102.953Z" fill="#EBEBEB"/>
<path d="M427.335 80.2573C427.335 80.2573 427.335 80.3689 427.242 80.3689C427.033 80.6059 426.809 80.8295 426.572 81.0386L399.451 108.55C398.278 109.668 396.718 110.288 395.098 110.28C393.483 110.291 391.928 109.67 390.764 108.55C390.189 107.983 389.732 107.307 389.42 106.561C389.108 105.815 388.948 105.015 388.948 104.207C388.948 103.399 389.108 102.599 389.42 101.853C389.732 101.107 390.189 100.431 390.764 99.8634L413.625 76.7974L390.764 53.8244C390.189 53.2568 389.732 52.5806 389.42 51.8349C389.108 51.0893 388.948 50.2892 388.948 49.481C388.948 48.6727 389.108 47.8726 389.42 47.127C389.732 46.3813 390.189 45.7051 390.764 45.1375C391.934 44.0197 393.489 43.396 395.107 43.396C396.725 43.396 398.281 44.0197 399.451 45.1375L426.572 72.6307C426.814 72.8411 427.038 73.0713 427.242 73.3189C427.335 73.3189 427.335 73.5049 427.335 73.5049C427.512 73.7873 427.673 74.0791 427.818 74.3792C427.818 74.3792 427.911 74.3792 427.911 74.5652C427.974 74.8679 428.074 75.1616 428.209 75.4395C428.209 75.5325 428.209 75.5325 428.209 75.7185V76.4068C428.209 76.4068 428.302 76.7788 428.302 76.8904C428.302 77.002 428.209 77.2625 428.209 77.3741V78.0065C428.209 78.0065 428.209 78.0065 428.209 78.1925C428.09 78.477 427.991 78.7691 427.911 79.0668C427.911 79.0668 427.818 79.0668 427.818 79.3644C427.818 79.6621 427.558 79.8667 427.335 80.2573Z" fill="#EBEBEB"/>
<path d="M390.355 749.023C597.405 749.023 765.252 735.648 765.252 719.149C765.252 702.65 597.405 689.275 390.355 689.275C183.305 689.275 15.4579 702.65 15.4579 719.149C15.4579 735.648 183.305 749.023 390.355 749.023Z" fill="#EBEBEB"/>
<path d="M743.86 682.988H518.557L563.48 421.672H731.955L743.86 682.988Z" fill="#DBDBDB"/>
<path d="M1.09744 682.987L98.4211 682.541L195.726 682.373L390.355 682.057L584.983 682.373L682.288 682.541L779.612 682.987L682.288 683.452L584.983 683.601L390.355 683.917L195.726 683.601L98.4211 683.452L1.09744 682.987Z" fill="#263238"/>
<path d="M212.598 31.8003H27.7348V149.734H212.598V31.8003Z" fill="white"/>
<path d="M213.751 150.888H26.563V30.6287H213.751V150.888ZM28.8882 148.563H211.426V32.9725H28.8882V148.563Z" fill="#EBEBEB"/>
<path d="M212.598 31.8003H27.7348V54.1036H212.598V31.8003Z" fill="#3B9AC6"/>
<path d="M213.751 55.2758H26.563V30.6287H213.751V55.2758ZM28.8882 52.932H211.426V32.9725H28.8882V52.932Z" fill="#EBEBEB"/>
<path d="M48.6617 43.11C48.6617 44.2137 48.3344 45.2927 47.7212 46.2104C47.108 47.1281 46.2365 47.8433 45.2168 48.2657C44.1971 48.6881 43.075 48.7986 41.9925 48.5833C40.91 48.368 39.9157 47.8365 39.1352 47.056C38.3548 46.2756 37.8233 45.2812 37.608 44.1987C37.3927 43.1162 37.5032 41.9942 37.9255 40.9745C38.3479 39.9548 39.0632 39.0832 39.9809 38.47C40.8986 37.8568 41.9775 37.5295 43.0812 37.5295C44.5613 37.5295 45.9807 38.1175 47.0272 39.164C48.0738 40.2106 48.6617 41.63 48.6617 43.11Z" fill="#A6A6A6"/>
<path d="M71.5788 43.11C71.5788 44.2137 71.2515 45.2927 70.6384 46.2104C70.0252 47.1281 69.1536 47.8433 68.1339 48.2657C67.1142 48.6881 65.9922 48.7986 64.9097 48.5833C63.8271 48.368 62.8328 47.8365 62.0524 47.056C61.2719 46.2756 60.7404 45.2812 60.5251 44.1987C60.3098 43.1162 60.4203 41.9942 60.8427 40.9745C61.265 39.9548 61.9803 39.0832 62.898 38.47C63.8157 37.8568 64.8946 37.5295 65.9983 37.5295C67.4784 37.5295 68.8978 38.1175 69.9443 39.164C70.9909 40.2106 71.5788 41.63 71.5788 43.11Z" fill="#EBEBEB"/>
<path d="M94.589 43.11C94.589 44.2137 94.2617 45.2927 93.6485 46.2104C93.0354 47.1281 92.1638 47.8433 91.1441 48.2657C90.1244 48.6881 89.0024 48.7986 87.9198 48.5833C86.8373 48.368 85.843 47.8365 85.0625 47.056C84.2821 46.2756 83.7506 45.2812 83.5353 44.1987C83.32 43.1162 83.4305 41.9942 83.8529 40.9745C84.2752 39.9548 84.9905 39.0832 85.9082 38.47C86.8259 37.8568 87.9048 37.5295 89.0085 37.5295C90.4886 37.5295 91.908 38.1175 92.9546 39.164C94.0011 40.2106 94.589 41.63 94.589 43.11Z" fill="white"/>
<path d="M59.6367 98.1895C59.7631 92.2286 62.219 86.5541 66.4782 82.3818C70.7375 78.2095 76.4613 75.8711 82.4237 75.8676C87.6184 75.8363 92.674 77.5456 96.7841 80.7226C97.3869 81.341 97.7452 82.1567 97.7927 83.0189C97.8403 83.8811 97.5739 84.7314 97.0428 85.4122C96.5117 86.0931 95.7519 86.5585 94.9041 86.7223C94.0563 86.8861 93.1778 86.7372 92.4313 86.3031C89.6032 84.0181 86.0587 82.8059 82.4237 82.8804C78.275 82.9158 74.2913 84.5093 71.2627 87.3448C69.8246 88.763 68.6802 90.4508 67.895 92.3116C67.1098 94.1725 66.6992 96.1699 66.6867 98.1895C66.6828 100.203 67.0824 102.197 67.862 104.053C68.6416 105.909 69.7853 107.59 71.2255 108.997C74.2472 111.846 78.2339 113.447 82.3865 113.48C86.0186 113.536 89.5568 112.326 92.3941 110.057C93.1588 109.532 94.092 109.312 95.0108 109.439C95.9296 109.566 96.7677 110.032 97.3607 110.746C97.8944 111.502 98.1272 112.429 98.0137 113.348C97.9002 114.266 97.4486 115.109 96.7469 115.712C92.6368 118.889 87.5812 120.599 82.3865 120.567C76.4138 120.578 70.6775 118.235 66.4195 114.047C62.1616 109.858 59.7247 104.162 59.6367 98.1895Z" fill="#EBEBEB"/>
<path d="M108.075 109.759C108.62 109.101 109.402 108.684 110.253 108.601C111.103 108.517 111.952 108.773 112.614 109.313C115.948 112.149 120.113 113.826 124.482 114.093C127.241 114.147 129.95 113.348 132.239 111.805C133.017 111.333 133.668 110.678 134.135 109.897C134.602 109.115 134.87 108.231 134.917 107.322C134.929 106.619 134.736 105.927 134.359 105.332C133.881 104.585 133.246 103.95 132.499 103.472C129.866 101.992 126.985 101.002 123.998 100.551H123.868C121.111 100.084 118.424 99.2719 115.869 98.1332C113.514 97.1138 111.505 95.4339 110.084 93.2967C109.139 91.7653 108.643 89.9994 108.652 88.1999C108.717 86.4048 109.2 84.6497 110.062 83.0739C110.924 81.4981 112.142 80.1451 113.619 79.1223C116.768 76.9367 120.519 75.7859 124.352 75.8298C129.268 76.0746 133.992 77.8138 137.894 80.8151C138.59 81.2874 139.072 82.0149 139.235 82.84C139.399 83.6651 139.231 84.5214 138.768 85.2236C138.543 85.5786 138.25 85.885 137.905 86.1247C137.56 86.3644 137.171 86.5326 136.76 86.6193C136.349 86.706 135.925 86.7094 135.513 86.6295C135.1 86.5495 134.708 86.3877 134.359 86.1537C131.179 84.0331 128.146 82.173 124.352 82.173C121.871 82.1363 119.44 82.8708 117.395 84.275C116.719 84.6948 116.154 85.2701 115.746 85.9529C115.339 86.6357 115.1 87.4062 115.051 88.1999C115.015 88.809 115.171 89.414 115.497 89.9298C115.935 90.581 116.506 91.1325 117.172 91.5482C119.554 92.9576 122.189 93.8866 124.928 94.2826H125.059C128.012 94.7984 130.892 95.6729 133.634 96.8868C136.147 97.9885 138.296 99.7819 139.828 102.058C140.816 103.636 141.338 105.461 141.335 107.322C141.274 109.239 140.756 111.114 139.825 112.79C138.893 114.466 137.574 115.895 135.978 116.958C132.623 119.321 128.604 120.559 124.501 120.492C118.661 120.224 113.072 118.041 108.596 114.279C107.94 113.74 107.519 112.968 107.422 112.125C107.325 111.281 107.559 110.433 108.075 109.759Z" fill="#EBEBEB"/>
<path d="M148.887 109.759C149.432 109.101 150.214 108.685 151.065 108.601C151.915 108.517 152.764 108.773 153.426 109.313C156.751 112.152 160.911 113.831 165.275 114.094C168.041 114.147 170.755 113.349 173.051 111.806C173.826 111.331 174.473 110.675 174.936 109.894C175.4 109.112 175.666 108.23 175.711 107.323C175.723 106.619 175.529 105.927 175.153 105.332C174.677 104.583 174.042 103.948 173.293 103.472C170.658 101.995 167.778 101.006 164.792 100.552H164.661C161.899 100.082 159.206 99.2696 156.644 98.1334C154.294 97.1137 152.291 95.4335 150.878 93.2969C149.933 91.7655 149.437 89.9996 149.445 88.2001C149.506 86.4041 149.987 84.6474 150.85 83.0709C151.712 81.4944 152.932 80.1421 154.412 79.1225C157.566 76.9332 161.325 75.7823 165.164 75.83C170.078 76.0818 174.801 77.8203 178.706 80.8153C179.399 81.2905 179.877 82.0193 180.037 82.8442C180.197 83.6691 180.026 84.5239 179.561 85.2238C179.337 85.5788 179.044 85.8852 178.699 86.1249C178.354 86.3646 177.964 86.5328 177.553 86.6195C177.142 86.7062 176.718 86.7096 176.306 86.6297C175.894 86.5497 175.502 86.388 175.153 86.1539C171.99 84.0333 168.94 82.1732 165.164 82.1732C162.682 82.1328 160.25 82.8676 158.207 84.2752C157.528 84.6929 156.959 85.2673 156.548 85.9502C156.137 86.6331 155.896 87.4047 155.844 88.2001C155.813 88.8064 155.962 89.4084 156.272 89.9301C156.72 90.5726 157.289 91.1222 157.946 91.5484C160.335 92.9575 162.977 93.8863 165.722 94.2828H165.833C168.788 94.7931 171.669 95.6678 174.409 96.8871C176.927 97.9883 179.082 99.7815 180.622 102.058C181.595 103.642 182.11 105.464 182.11 107.323C182.053 109.238 181.538 111.112 180.61 112.788C179.681 114.464 178.365 115.894 176.771 116.958C173.408 119.32 169.384 120.557 165.275 120.492C159.437 120.216 153.851 118.034 149.371 114.28C148.725 113.733 148.314 112.958 148.224 112.116C148.134 111.275 148.371 110.431 148.887 109.759Z" fill="#EBEBEB"/>
<path d="M517.924 369.196H333.062V487.13H517.924V369.196Z" fill="white"/>
<path d="M519.096 488.302H331.89V368.024H519.096V488.302ZM334.234 485.959H516.846V370.368H334.234V485.959Z" fill="#EBEBEB"/>
<path d="M517.924 369.196H333.062V391.499H517.924V369.196Z" fill="#3B9AC6"/>
<path d="M519.096 392.672H331.89V368.024H519.096V392.672ZM334.234 390.328H516.846V370.368H334.234V390.328Z" fill="#EBEBEB"/>
<path d="M354.007 380.506C354.007 381.61 353.68 382.689 353.067 383.606C352.453 384.524 351.582 385.239 350.562 385.662C349.542 386.084 348.42 386.195 347.338 385.979C346.255 385.764 345.261 385.232 344.481 384.452C343.7 383.672 343.169 382.677 342.953 381.595C342.738 380.512 342.848 379.39 343.271 378.37C343.693 377.351 344.409 376.479 345.326 375.866C346.244 375.253 347.323 374.926 348.427 374.926C349.907 374.926 351.326 375.513 352.373 376.56C353.419 377.607 354.007 379.026 354.007 380.506Z" fill="#A6A6A6"/>
<path d="M376.924 380.506C376.924 381.61 376.597 382.689 375.984 383.606C375.371 384.524 374.499 385.239 373.479 385.662C372.46 386.084 371.338 386.195 370.255 385.979C369.173 385.764 368.178 385.232 367.398 384.452C366.617 383.672 366.086 382.677 365.871 381.595C365.655 380.512 365.766 379.39 366.188 378.37C366.61 377.351 367.326 376.479 368.243 375.866C369.161 375.253 370.24 374.926 371.344 374.926C372.824 374.926 374.243 375.513 375.29 376.56C376.336 377.607 376.924 379.026 376.924 380.506Z" fill="#EBEBEB"/>
<path d="M399.841 380.506C399.841 381.61 399.514 382.689 398.901 383.606C398.288 384.524 397.416 385.239 396.397 385.662C395.377 386.084 394.255 386.195 393.172 385.979C392.09 385.764 391.095 385.232 390.315 384.452C389.535 383.672 389.003 382.677 388.788 381.595C388.572 380.512 388.683 379.39 389.105 378.37C389.528 377.351 390.243 376.479 391.161 375.866C392.078 375.253 393.157 374.926 394.261 374.926C395.741 374.926 397.16 375.513 398.207 376.56C399.254 377.607 399.841 379.026 399.841 380.506Z" fill="white"/>
<path d="M367.586 435.604C367.708 429.642 370.162 423.965 374.423 419.791C378.683 415.618 384.409 413.281 390.373 413.282C395.566 413.244 400.622 414.947 404.734 418.119C405.435 418.722 405.887 419.565 406 420.484C406.114 421.402 405.881 422.33 405.348 423.085C404.754 423.799 403.916 424.265 402.998 424.392C402.079 424.519 401.146 424.299 400.381 423.774C397.553 421.466 394.004 420.228 390.355 420.277C386.202 420.31 382.215 421.911 379.194 424.76C376.309 427.618 374.676 431.506 374.655 435.567C374.654 437.58 375.055 439.573 375.835 441.429C376.614 443.284 377.756 444.966 379.194 446.375C382.217 449.218 386.204 450.813 390.355 450.839C393.988 450.901 397.528 449.69 400.362 447.416C401.127 446.891 402.06 446.671 402.979 446.798C403.898 446.925 404.736 447.391 405.329 448.105C405.863 448.861 406.095 449.788 405.982 450.707C405.868 451.625 405.417 452.468 404.715 453.071C400.605 456.248 395.549 457.957 390.355 457.926C384.388 457.942 378.655 455.609 374.395 451.432C370.135 447.255 367.689 441.57 367.586 435.604Z" fill="#EBEBEB"/>
<path d="M427.149 439.51H418.257C417.788 439.545 417.316 439.482 416.872 439.327C416.428 439.171 416.021 438.925 415.676 438.605C415.331 438.284 415.056 437.896 414.867 437.465C414.679 437.033 414.582 436.568 414.582 436.097C414.582 435.626 414.679 435.16 414.867 434.729C415.056 434.297 415.331 433.909 415.676 433.589C416.021 433.269 416.428 433.023 416.872 432.867C417.316 432.711 417.788 432.649 418.257 432.683H427.074V423.996C427.074 423.059 427.447 422.16 428.109 421.497C428.772 420.835 429.671 420.462 430.609 420.462C431.546 420.462 432.445 420.835 433.108 421.497C433.771 422.16 434.143 423.059 434.143 423.996V432.628H442.979C443.84 432.691 444.646 433.079 445.234 433.712C445.822 434.345 446.149 435.177 446.149 436.041C446.149 436.905 445.822 437.737 445.234 438.37C444.646 439.003 443.84 439.391 442.979 439.454H434.143V448.179C434.143 449.116 433.771 450.015 433.108 450.678C432.445 451.34 431.546 451.713 430.609 451.713C429.671 451.713 428.772 451.34 428.109 450.678C427.447 450.015 427.074 449.116 427.074 448.179L427.149 439.51Z" fill="#EBEBEB"/>
<path d="M465.654 439.511H456.837C456.367 439.545 455.896 439.483 455.452 439.327C455.007 439.171 454.6 438.925 454.255 438.605C453.91 438.285 453.635 437.897 453.447 437.465C453.259 437.034 453.162 436.568 453.162 436.097C453.162 435.627 453.259 435.161 453.447 434.729C453.635 434.298 453.91 433.91 454.255 433.59C454.6 433.269 455.007 433.023 455.452 432.868C455.896 432.712 456.367 432.649 456.837 432.684H465.654V423.997C465.646 423.53 465.733 423.066 465.907 422.633C466.082 422.2 466.342 421.806 466.671 421.475C467.001 421.143 467.393 420.882 467.826 420.705C468.258 420.528 468.721 420.439 469.188 420.444C470.131 420.444 471.034 420.818 471.701 421.485C472.367 422.151 472.741 423.055 472.741 423.997V432.628H481.503C482.364 432.692 483.17 433.079 483.758 433.712C484.346 434.345 484.673 435.177 484.673 436.042C484.673 436.906 484.346 437.738 483.758 438.371C483.17 439.004 482.364 439.391 481.503 439.455H472.685V448.179C472.685 448.646 472.593 449.108 472.415 449.539C472.236 449.97 471.975 450.361 471.645 450.691C471.315 451.021 470.923 451.283 470.492 451.462C470.061 451.64 469.599 451.732 469.132 451.732C468.665 451.737 468.202 451.648 467.77 451.471C467.337 451.294 466.945 451.033 466.616 450.701C466.286 450.37 466.026 449.976 465.852 449.543C465.677 449.11 465.591 448.646 465.598 448.179L465.654 439.511Z" fill="#EBEBEB"/>
<path d="M431.706 142.611H123.403V395.797H431.706V142.611Z" fill="white"/>
<path d="M432.878 396.987H122.231V141.457H432.878V396.987ZM124.575 394.643H430.534V143.782H124.575V394.643Z" fill="#EBEBEB"/>
<path d="M431.706 142.611H123.403V164.914H431.706V142.611Z" fill="#3B9AC6"/>
<path d="M432.878 166.085H122.231V141.457H432.878V166.085ZM124.575 163.742H430.534V143.782H124.575V163.742Z" fill="#EBEBEB"/>
<path d="M144.33 153.938C144.33 155.042 144.003 156.121 143.389 157.039C142.776 157.956 141.905 158.672 140.885 159.094C139.865 159.516 138.743 159.627 137.661 159.412C136.578 159.196 135.584 158.665 134.803 157.884C134.023 157.104 133.491 156.11 133.276 155.027C133.061 153.945 133.171 152.823 133.594 151.803C134.016 150.783 134.731 149.912 135.649 149.298C136.567 148.685 137.646 148.358 138.749 148.358C140.229 148.358 141.649 148.946 142.695 149.992C143.742 151.039 144.33 152.458 144.33 153.938Z" fill="#A6A6A6"/>
<path d="M167.247 153.938C167.247 155.042 166.92 156.121 166.307 157.039C165.693 157.956 164.822 158.672 163.802 159.094C162.782 159.516 161.66 159.627 160.578 159.412C159.495 159.196 158.501 158.665 157.721 157.884C156.94 157.104 156.409 156.11 156.193 155.027C155.978 153.945 156.088 152.823 156.511 151.803C156.933 150.783 157.648 149.912 158.566 149.298C159.484 148.685 160.563 148.358 161.667 148.358C163.147 148.358 164.566 148.946 165.613 149.992C166.659 151.039 167.247 152.458 167.247 153.938Z" fill="#EBEBEB"/>
<path d="M190.183 153.938C190.183 155.042 189.855 156.121 189.242 157.039C188.629 157.956 187.757 158.672 186.738 159.094C185.718 159.516 184.596 159.627 183.514 159.412C182.431 159.196 181.437 158.665 180.656 157.884C179.876 157.104 179.344 156.11 179.129 155.027C178.914 153.945 179.024 152.823 179.447 151.803C179.869 150.783 180.584 149.912 181.502 149.298C182.42 148.685 183.498 148.358 184.602 148.358C186.082 148.358 187.502 148.946 188.548 149.992C189.595 151.039 190.183 152.458 190.183 153.938Z" fill="white"/>
<path d="M159.248 209.279H147.325V213.632H159.248V209.279Z" fill="#EBEBEB"/>
<path d="M304.713 209.279H167.935V213.632H304.713V209.279Z" fill="#EBEBEB"/>
<path d="M334.68 209.279H312.042V213.632H334.68V209.279Z" fill="#3B9AC6"/>
<path d="M386.486 267.558H363.829V271.91H386.486V267.558Z" fill="#EBEBEB"/>
<path d="M378.766 209.279H339.609V213.632H378.766V209.279Z" fill="#A6A6A6"/>
<path d="M171.172 220.941H159.248V225.294H171.172V220.941Z" fill="#EBEBEB"/>
<path d="M269.314 220.941H179.561V225.294H269.314V220.941Z" fill="#A6A6A6"/>
<path d="M358.453 267.558H305.903V271.91H358.453V267.558Z" fill="#A6A6A6"/>
<path d="M253.67 255.913H167.935V260.266H253.67V255.913Z" fill="#A6A6A6"/>
<path d="M239.7 232.586H179.561V236.939H239.7V232.586Z" fill="#3B9AC6"/>
<path d="M350.119 244.25H327.184V248.602H350.119V244.25Z" fill="#A6A6A6"/>
<path d="M342.418 232.586H246.378V236.939H342.418V232.586Z" fill="#A6A6A6"/>
<path d="M282.577 267.558H167.935V271.91H282.577V267.558Z" fill="#3B9AC6"/>
<path d="M399.209 220.941H337.08V225.294H399.209V220.941Z" fill="#3B9AC6"/>
<path d="M332.15 220.941H274.95V225.294H332.15V220.941Z" fill="#EBEBEB"/>
<path d="M385.537 232.586H346.939V236.939H385.537V232.586Z" fill="#EBEBEB"/>
<path d="M171.172 232.586H159.248V236.939H171.172V232.586Z" fill="#EBEBEB"/>
<path d="M159.248 244.25H147.325V248.602H159.248V244.25Z" fill="#A6A6A6"/>
<path d="M238.398 244.25H167.935V248.602H238.398V244.25Z" fill="#EBEBEB"/>
<path d="M250.024 279.221H179.561V283.574H250.024V279.221Z" fill="#EBEBEB"/>
<path d="M364.536 290.884H310.963V295.237H364.536V290.884Z" fill="#3B9AC6"/>
<path d="M326.421 279.221H255.753V283.574H326.421V279.221Z" fill="#3B9AC6"/>
<path d="M304.806 290.884H243.29V295.237H304.806V290.884Z" fill="#EBEBEB"/>
<path d="M199.967 290.884H179.561V295.237H199.967V290.884Z" fill="#A6A6A6"/>
<path d="M334.68 255.913H258.525V260.266H334.68V255.913Z" fill="#EBEBEB"/>
<path d="M388.067 255.913H339.609V260.266H388.067V255.913Z" fill="#3B9AC6"/>
<path d="M321.622 244.25H245.56V248.602H321.622V244.25Z" fill="#3B9AC6"/>
<path d="M159.248 255.913H147.325V260.266H159.248V255.913Z" fill="#EBEBEB"/>
<path d="M159.248 267.558H147.325V271.91H159.248V267.558Z" fill="#EBEBEB"/>
<path d="M171.172 279.221H159.248V283.574H171.172V279.221Z" fill="#A6A6A6"/>
<path d="M171.172 290.884H159.248V295.237H171.172V290.884Z" fill="#EBEBEB"/>
<path d="M159.248 300.631H147.325V304.984H159.248V300.631Z" fill="#EBEBEB"/>
<path d="M304.713 300.631H167.935V304.984H304.713V300.631Z" fill="#EBEBEB"/>
<path d="M171.172 312.295H159.248V316.647H171.172V312.295Z" fill="#EBEBEB"/>
<path d="M269.314 312.295H179.561V316.647H269.314V312.295Z" fill="#A6A6A6"/>
<path d="M253.67 347.266H167.935V351.618H253.67V347.266Z" fill="#A6A6A6"/>
<path d="M239.7 323.958H179.561V328.31H239.7V323.958Z" fill="#3B9AC6"/>
<path d="M342.418 323.958H246.378V328.31H342.418V323.958Z" fill="#A6A6A6"/>
<path d="M282.577 358.91H167.935V363.263H282.577V358.91Z" fill="#3B9AC6"/>
<path d="M399.209 312.295H337.08V316.647H399.209V312.295Z" fill="#3B9AC6"/>
<path d="M332.15 312.295H274.95V316.647H332.15V312.295Z" fill="#EBEBEB"/>
<path d="M385.537 323.958H346.939V328.31H385.537V323.958Z" fill="#EBEBEB"/>
<path d="M171.172 323.958H159.248V328.31H171.172V323.958Z" fill="#EBEBEB"/>
<path d="M159.248 335.602H147.325V339.955H159.248V335.602Z" fill="#A6A6A6"/>
<path d="M238.398 335.602H167.935V339.955H238.398V335.602Z" fill="#EBEBEB"/>
<path d="M334.68 347.266H258.525V351.618H334.68V347.266Z" fill="#EBEBEB"/>
<path d="M321.622 335.602H245.56V339.955H321.622V335.602Z" fill="#3B9AC6"/>
<path d="M159.248 347.266H147.325V351.618H159.248V347.266Z" fill="#EBEBEB"/>
<path d="M154.691 197.82C154.885 198.015 154.994 198.279 154.994 198.555C154.994 198.83 154.885 199.094 154.691 199.289C154.493 199.479 154.23 199.585 153.956 199.585C153.682 199.585 153.419 199.479 153.221 199.289L148.627 194.62C148.617 194.59 148.617 194.558 148.627 194.527C148.619 194.484 148.619 194.44 148.627 194.397C148.619 194.36 148.619 194.322 148.627 194.286V194.174C148.627 194.174 148.627 194.174 148.627 194.062V193.951C148.619 193.908 148.619 193.864 148.627 193.821C148.627 193.821 148.627 193.69 148.627 193.672C148.649 193.622 148.689 193.582 148.738 193.56L153.333 188.891C153.53 188.701 153.794 188.595 154.068 188.595C154.342 188.595 154.605 188.701 154.802 188.891C154.997 189.086 155.106 189.35 155.106 189.626C155.106 189.901 154.997 190.165 154.802 190.361L150.933 194.267L154.691 197.82Z" fill="#3B9AC6"/>
<path d="M158.858 198.341L162.876 188.798C162.921 188.69 162.987 188.591 163.07 188.508C163.154 188.425 163.253 188.359 163.361 188.314C163.47 188.269 163.587 188.246 163.705 188.246C163.822 188.246 163.939 188.27 164.047 188.315C164.156 188.36 164.255 188.426 164.338 188.509C164.421 188.593 164.487 188.692 164.532 188.801C164.577 188.909 164.6 189.026 164.6 189.144C164.6 189.261 164.576 189.378 164.531 189.487L160.513 199.048C160.441 199.209 160.323 199.346 160.175 199.442C160.026 199.538 159.853 199.588 159.676 199.587C159.572 199.613 159.464 199.613 159.36 199.587C159.238 199.548 159.126 199.482 159.032 199.395C158.938 199.308 158.865 199.201 158.817 199.082C158.769 198.963 158.748 198.835 158.755 198.707C158.762 198.579 158.797 198.454 158.858 198.341Z" fill="#3B9AC6"/>
<path d="M172.437 194.49C172.41 194.536 172.371 194.575 172.325 194.602L167.731 199.271C167.527 199.457 167.262 199.563 166.987 199.569C166.716 199.566 166.456 199.459 166.261 199.271C166.067 199.076 165.958 198.812 165.958 198.536C165.958 198.261 166.067 197.997 166.261 197.801L170.13 193.877L166.261 189.97C166.067 189.775 165.958 189.511 165.958 189.235C165.958 188.96 166.067 188.696 166.261 188.501C166.459 188.311 166.722 188.205 166.996 188.205C167.27 188.205 167.533 188.311 167.731 188.501L172.325 193.17C172.375 193.192 172.414 193.232 172.437 193.281C172.474 193.326 172.506 193.377 172.53 193.43C172.522 193.479 172.522 193.53 172.53 193.579V193.691V193.914C172.525 193.963 172.525 194.013 172.53 194.063L172.437 194.49Z" fill="#3B9AC6"/>
<path d="M466.863 107.118H340.93V153.752H466.863V107.118Z" fill="#455A64"/>
<path d="M359.104 140.099V119.414C359.104 118.921 359.3 118.448 359.649 118.099C359.998 117.75 360.471 117.554 360.964 117.554C361.218 117.539 361.471 117.575 361.71 117.662C361.949 117.749 362.167 117.883 362.352 118.058C362.537 118.232 362.684 118.442 362.784 118.675C362.885 118.909 362.936 119.16 362.936 119.414V127.822H372.013V119.414C372.013 118.921 372.209 118.448 372.558 118.099C372.907 117.75 373.38 117.554 373.874 117.554C374.127 117.539 374.381 117.575 374.62 117.662C374.858 117.749 375.077 117.883 375.262 118.058C375.446 118.232 375.593 118.442 375.694 118.675C375.794 118.909 375.846 119.16 375.845 119.414V140.099C375.846 140.353 375.794 140.604 375.694 140.838C375.593 141.071 375.446 141.281 375.262 141.455C375.077 141.63 374.858 141.764 374.62 141.851C374.381 141.938 374.127 141.974 373.874 141.959C373.38 141.959 372.907 141.763 372.558 141.414C372.209 141.066 372.013 140.592 372.013 140.099V131.691H362.936V140.099C362.936 140.353 362.885 140.604 362.784 140.838C362.684 141.071 362.537 141.281 362.352 141.455C362.167 141.63 361.949 141.764 361.71 141.851C361.471 141.938 361.218 141.974 360.964 141.959C360.471 141.959 359.998 141.763 359.649 141.414C359.3 141.066 359.104 140.592 359.104 140.099Z" fill="white"/>
<path d="M398.949 121.386H393.368V140.099C393.368 140.612 393.164 141.104 392.801 141.467C392.439 141.83 391.947 142.033 391.434 142.033C390.92 142.033 390.428 141.83 390.066 141.467C389.703 141.104 389.499 140.612 389.499 140.099V121.386H383.918C383.664 121.386 383.413 121.335 383.18 121.234C382.947 121.134 382.736 120.987 382.562 120.802C382.388 120.617 382.253 120.399 382.167 120.16C382.08 119.921 382.043 119.667 382.058 119.414C382.058 118.921 382.254 118.447 382.603 118.099C382.952 117.75 383.425 117.554 383.918 117.554H398.8C399.293 117.554 399.766 117.75 400.115 118.099C400.464 118.447 400.66 118.921 400.66 119.414C400.664 119.895 400.493 120.36 400.177 120.724C399.862 121.087 399.425 121.322 398.949 121.386Z" fill="white"/>
<path d="M427.763 119.414V140.099C427.73 140.601 427.508 141.072 427.142 141.417C426.776 141.762 426.294 141.956 425.791 141.959C425.297 141.959 424.824 141.763 424.475 141.414C424.127 141.066 423.931 140.592 423.931 140.099V125.348L418.871 132.361C418.696 132.612 418.463 132.817 418.19 132.957C417.917 133.096 417.615 133.166 417.308 133.161C416.995 133.163 416.685 133.092 416.404 132.953C416.123 132.814 415.879 132.611 415.69 132.361L410.686 125.348V140.099C410.686 140.615 410.481 141.109 410.117 141.474C409.752 141.838 409.258 142.043 408.742 142.043C408.227 142.043 407.732 141.838 407.368 141.474C407.003 141.109 406.799 140.615 406.799 140.099V119.414C406.799 118.921 406.995 118.448 407.343 118.099C407.692 117.75 408.165 117.554 408.659 117.554H408.77C409.073 117.551 409.372 117.623 409.642 117.762C409.911 117.902 410.142 118.105 410.314 118.354L417.29 128.027L424.265 118.354C424.442 118.1 424.679 117.893 424.955 117.754C425.231 117.614 425.537 117.545 425.847 117.554C426.34 117.571 426.809 117.771 427.163 118.115C427.517 118.459 427.731 118.922 427.763 119.414Z" fill="white"/>
<path d="M436.245 140.099V119.414C436.245 118.921 436.441 118.448 436.79 118.099C437.139 117.75 437.612 117.554 438.105 117.554C438.357 117.541 438.609 117.58 438.846 117.668C439.082 117.756 439.298 117.891 439.481 118.065C439.664 118.239 439.809 118.448 439.908 118.68C440.008 118.912 440.059 119.162 440.058 119.414V138.127H449.564C450.082 138.127 450.578 138.333 450.945 138.7C451.311 139.066 451.517 139.563 451.517 140.081C451.517 140.599 451.311 141.095 450.945 141.462C450.578 141.828 450.082 142.034 449.564 142.034H438.105C437.854 142.034 437.606 141.984 437.376 141.885C437.145 141.787 436.936 141.644 436.763 141.463C436.589 141.282 436.454 141.068 436.365 140.834C436.276 140.6 436.235 140.35 436.245 140.099Z" fill="white"/>
<path d="M130.341 285.247H26.563V331.881H130.341V285.247Z" fill="#455A64"/>
<path d="M57.3859 310.639H53.1261V318.247C53.1261 318.762 52.9213 319.257 52.5568 319.621C52.1922 319.986 51.6978 320.191 51.1822 320.191C50.6667 320.191 50.1723 319.986 49.8077 319.621C49.4432 319.257 49.2384 318.762 49.2384 318.247V297.506C49.2384 297.013 49.4344 296.539 49.7832 296.191C50.132 295.842 50.6052 295.646 51.0985 295.646H57.3859C59.3741 295.646 61.2808 296.436 62.6867 297.841C64.0925 299.247 64.8823 301.154 64.8823 303.142C64.8823 305.13 64.0925 307.037 62.6867 308.443C61.2808 309.849 59.3741 310.639 57.3859 310.639ZM53.1261 306.807H57.3859C58.343 306.807 59.2609 306.427 59.9376 305.75C60.6144 305.073 60.9946 304.155 60.9946 303.198C60.9946 302.241 60.6144 301.323 59.9376 300.646C59.2609 299.97 58.343 299.589 57.3859 299.589H53.1261V306.807Z" fill="white"/>
<path d="M69.6629 318.246V297.505C69.6629 297.012 69.8589 296.539 70.2077 296.19C70.5566 295.841 71.0297 295.645 71.5231 295.645C72.0164 295.645 72.4895 295.841 72.8384 296.19C73.1872 296.539 73.3832 297.012 73.3832 297.505V305.913H82.4608V297.505C82.4608 297.012 82.6568 296.539 83.0056 296.19C83.3545 295.841 83.8276 295.645 84.321 295.645C84.5745 295.63 84.8284 295.667 85.0671 295.753C85.3059 295.84 85.5243 295.974 85.7091 296.149C85.8938 296.323 86.0409 296.533 86.1413 296.767C86.2416 297 86.2932 297.251 86.2927 297.505V318.19C86.2932 318.444 86.2416 318.695 86.1413 318.929C86.0409 319.162 85.8938 319.372 85.7091 319.547C85.5243 319.721 85.3059 319.855 85.0671 319.942C84.8284 320.029 84.5745 320.065 84.321 320.05C83.8276 320.05 83.3545 319.854 83.0056 319.505C82.6568 319.157 82.4608 318.683 82.4608 318.19V309.782H73.5506V318.19C73.5506 318.683 73.3547 319.157 73.0058 319.505C72.657 319.854 72.1838 320.05 71.6905 320.05C71.4371 320.073 71.1818 320.044 70.9402 319.964C70.6986 319.885 70.4759 319.756 70.2858 319.587C70.0958 319.418 69.9425 319.212 69.8353 318.981C69.7282 318.75 69.6695 318.5 69.6629 318.246Z" fill="white"/>
<path d="M102.718 310.639H98.4024V318.247C98.4024 318.762 98.1976 319.257 97.8331 319.621C97.4685 319.986 96.9741 320.191 96.4585 320.191C95.943 320.191 95.4486 319.986 95.084 319.621C94.7195 319.257 94.5147 318.762 94.5147 318.247V297.506C94.5147 297.013 94.7107 296.539 95.0595 296.191C95.4084 295.842 95.8815 295.646 96.3748 295.646H102.644C104.632 295.646 106.539 296.436 107.944 297.841C109.35 299.247 110.14 301.154 110.14 303.142C110.14 305.13 109.35 307.037 107.944 308.443C106.539 309.849 104.632 310.639 102.644 310.639H102.718ZM98.4024 306.807H102.718C103.675 306.807 104.593 306.427 105.27 305.75C105.947 305.073 106.327 304.155 106.327 303.198C106.327 302.241 105.947 301.323 105.27 300.646C104.593 299.97 103.675 299.589 102.718 299.589H98.4024V306.807Z" fill="white"/>
<path d="M436.245 282.215L444.113 301.226L436.245 304.481L428.339 285.34L415.337 295.422V241.868L452.837 279.741L436.245 282.215Z" fill="#263238"/>
<path d="M415.337 236.12C415.007 235.26 414.843 234.345 414.853 233.423C414.832 232.501 414.997 231.584 415.337 230.726C415.671 231.585 415.829 232.502 415.802 233.423C415.818 234.343 415.661 235.259 415.337 236.12Z" fill="#263238"/>
<path d="M410.686 237.981C409.852 237.602 409.096 237.073 408.454 236.419C407.784 235.784 407.252 235.018 406.891 234.168C407.73 234.546 408.488 235.083 409.124 235.749C409.794 236.377 410.326 237.137 410.686 237.981Z" fill="#263238"/>
<path d="M408.77 242.575C407.036 243.219 405.128 243.219 403.394 242.575C405.133 241.955 407.032 241.955 408.77 242.575Z" fill="#263238"/>
<path d="M410.686 247.282C410.326 248.126 409.794 248.886 409.124 249.514C408.488 250.18 407.73 250.717 406.891 251.095C407.252 250.245 407.784 249.479 408.454 248.844C409.096 248.19 409.852 247.661 410.686 247.282Z" fill="#263238"/>
<path d="M421.977 242.575C423.722 241.955 425.627 241.955 427.372 242.575C425.632 243.22 423.718 243.22 421.977 242.575Z" fill="#263238"/>
<path d="M419.969 237.981C420.342 237.144 420.873 236.387 421.531 235.749C422.17 235.079 422.935 234.541 423.782 234.168C422.993 235.821 421.641 237.14 419.969 237.888V237.981Z" fill="#263238"/>
<path d="M556.597 465.702C542.255 528.166 513.218 607.241 490.803 623.201C472.723 636.074 377.799 658.731 372.516 659.307C359.402 660.628 333.452 568.066 347.106 564.309C364.238 559.565 445.564 557.036 450.196 552.292C454.828 547.549 484.59 507.239 518.111 460.791C541.214 428.703 565.489 426.955 556.597 465.702Z" fill="#F8D197"/>
<path d="M383.007 654.23C381.445 655.011 359.29 666.154 345.581 670.134C335.368 673.092 305.699 680.83 301.327 669.911C298.333 662.47 315.223 655.848 327.072 650.9C333.322 648.315 341.023 641.767 339.182 637.767C335.964 630.736 319.892 637.767 309.326 643.925C288.864 655.811 261.65 677.184 249.168 666.805C244.462 662.898 249.931 655.755 257.948 648.761C244.927 656.908 231.069 663.642 225.656 659.457C222.568 657.095 222.419 653.876 224.149 650.156C220.131 651.458 216.578 651.198 214.104 648.594C209.882 644.166 211.928 637.637 216.56 630.941C215.766 630.853 215.005 630.577 214.339 630.137C213.673 629.698 213.121 629.106 212.728 628.411C203.762 614.757 248.573 575.564 264.087 571.899C309.679 561.054 358.174 565.017 358.174 565.017C376.087 579.321 383.044 654.193 383.007 654.23Z" fill="#F8D197"/>
<path d="M315.948 612.245C305.093 613.935 294.724 617.924 285.535 623.945C273.964 631.591 266.301 640.519 256.609 649.504C256.574 649.555 256.556 649.616 256.559 649.678C256.563 649.74 256.586 649.799 256.627 649.846C256.667 649.893 256.722 649.925 256.783 649.937C256.844 649.949 256.907 649.941 256.963 649.913C261.576 645.635 280.735 629.563 285.683 625.917C294.616 619.18 304.966 614.568 315.948 612.431C316.116 612.412 316.078 612.226 315.948 612.245Z" fill="#263238"/>
<path d="M307.466 592.9C295.486 596.174 283.284 599.485 272.123 605.158C259.939 611.353 250.415 621.472 241.058 631.201C235.428 637.041 229.934 643.012 224.577 649.114C224.354 649.356 224.689 649.765 224.931 649.505C234.43 639.46 244.233 629.7 254.34 620.226C263.655 611.387 274.622 604.471 286.613 599.875C293.477 597.271 300.509 595.188 307.54 593.104C307.633 593.067 307.596 592.863 307.466 592.9Z" fill="#263238"/>
<path d="M294.668 575.972C283.023 578.372 272.867 580.418 262.543 586.649C248.908 594.908 235.72 608.822 231.106 613.77C225.991 619.221 221.08 624.931 216.225 630.512C216.02 630.735 216.43 631.088 216.634 630.847C227.704 618.372 239.566 606.622 252.145 595.671C258.064 590.372 264.765 586.018 272.011 582.761C279.355 579.873 286.936 577.626 294.668 576.046C294.668 576.046 294.705 575.972 294.668 575.972Z" fill="#263238"/>
<path d="M450.884 543.178L538.312 539.457C538.312 539.457 554.198 496.097 560.038 457.61C565.879 419.124 533.085 432.926 500.625 474.352C468.165 515.777 450.884 543.178 450.884 543.178Z" fill="#3B9AC6"/>
<path d="M479.512 517.005C480.107 516.838 480.703 516.782 481.372 516.652C481.89 516.538 482.428 516.542 482.944 516.662C483.461 516.783 483.944 517.018 484.357 517.35C484.771 517.682 485.106 518.102 485.336 518.58C485.566 519.058 485.686 519.581 485.688 520.112C485.677 520.588 485.79 521.06 486.015 521.48C486.24 521.9 486.569 522.256 486.971 522.511C487.413 522.797 487.917 522.969 488.441 523.014C489.036 523.125 489.632 523.2 490.301 523.367C489.706 523.535 489.111 523.609 488.441 523.739C487.772 523.873 487.078 523.802 486.451 523.535C485.791 523.247 485.229 522.774 484.833 522.173C484.436 521.572 484.223 520.869 484.218 520.149C484.214 519.677 484.086 519.214 483.848 518.806C483.61 518.399 483.269 518.06 482.861 517.824C482.408 517.557 481.897 517.404 481.372 517.377C480.703 517.266 480.107 517.191 479.512 517.005ZM541.028 463.879C541.559 463.918 542.074 464.077 542.534 464.344C542.941 464.583 543.279 464.922 543.517 465.329C543.755 465.737 543.884 466.198 543.892 466.669C543.897 467.389 544.11 468.092 544.507 468.693C544.903 469.294 545.465 469.767 546.125 470.055C546.754 470.317 547.448 470.382 548.115 470.241C548.71 470.129 549.305 470.055 549.975 469.887C549.38 469.72 548.785 469.646 548.115 469.534C547.591 469.493 547.085 469.32 546.645 469.032C546.247 468.772 545.92 468.416 545.696 467.997C545.472 467.577 545.357 467.108 545.362 466.632C545.337 465.909 545.102 465.21 544.686 464.618C544.27 464.027 543.69 463.57 543.018 463.302C542.379 463.079 541.691 463.034 541.028 463.172C540.432 463.284 539.837 463.358 539.261 463.526C539.856 463.693 540.451 463.768 541.028 463.879ZM543.26 497.976C542.859 498.324 542.381 498.573 541.865 498.701C541.413 498.824 540.937 498.826 540.483 498.709C540.03 498.592 539.615 498.358 539.279 498.032C538.769 497.521 538.12 497.17 537.413 497.021C536.706 496.872 535.972 496.933 535.298 497.195C534.671 497.464 534.134 497.91 533.755 498.478C533.42 498.98 533.048 499.445 532.75 499.985C533.289 499.687 533.754 499.315 534.257 498.98C534.664 498.649 535.141 498.413 535.652 498.292C536.118 498.194 536.602 498.215 537.057 498.355C537.513 498.495 537.926 498.749 538.256 499.092C538.635 499.478 539.096 499.773 539.605 499.954C540.114 500.136 540.658 500.199 541.195 500.14C541.733 500.081 542.25 499.901 542.707 499.613C543.165 499.325 543.551 498.937 543.837 498.478C544.171 497.976 544.543 497.492 544.841 496.953C544.246 497.269 543.781 497.641 543.279 497.976H543.26ZM519.487 458.206C519.081 458.551 518.605 458.805 518.092 458.95C517.635 459.064 517.157 459.061 516.701 458.941C516.246 458.82 515.828 458.587 515.488 458.261L515.023 457.852C514.669 458.206 514.334 458.559 514 458.931C514.177 459.039 514.34 459.171 514.483 459.322C515.011 459.818 515.673 460.149 516.387 460.275C517.1 460.401 517.835 460.315 518.501 460.029C519.112 459.738 519.628 459.28 519.989 458.708C520.324 458.206 520.696 457.741 520.994 457.201C520.566 457.48 520.008 457.871 519.506 458.206H519.487ZM509.61 490.963C509.574 491.492 509.421 492.007 509.163 492.47C508.922 492.874 508.582 493.21 508.175 493.448C507.769 493.685 507.309 493.816 506.838 493.828C506.115 493.829 505.408 494.041 504.804 494.437C504.199 494.833 503.723 495.397 503.434 496.06C503.182 496.685 503.118 497.37 503.248 498.032C503.378 498.627 503.434 499.222 503.601 499.892C503.769 499.297 503.843 498.701 503.973 498.032C504.023 497.512 504.189 497.01 504.457 496.562C504.718 496.166 505.074 495.842 505.494 495.621C505.914 495.4 506.382 495.288 506.857 495.297C507.583 495.276 508.286 495.043 508.881 494.626C509.476 494.21 509.936 493.628 510.205 492.953C510.421 492.313 510.466 491.627 510.335 490.963C510.205 490.368 510.13 489.773 509.963 489.103C509.796 489.773 509.74 490.368 509.61 490.963ZM534.647 524.279C534.62 524.809 534.467 525.326 534.201 525.785C533.962 526.192 533.623 526.53 533.216 526.768C532.809 527.006 532.347 527.135 531.876 527.143C531.158 527.146 530.457 527.357 529.856 527.75C529.255 528.142 528.781 528.701 528.49 529.357C528.224 529.985 528.153 530.678 528.286 531.347C528.416 531.942 528.49 532.538 528.658 533.207C528.825 532.612 528.9 532.017 529.011 531.347C529.059 530.824 529.231 530.32 529.513 529.878C529.771 529.479 530.128 529.153 530.548 528.932C530.968 528.71 531.438 528.6 531.913 528.613C532.636 528.588 533.336 528.353 533.927 527.937C534.518 527.521 534.976 526.941 535.243 526.269C535.466 525.63 535.511 524.942 535.373 524.279C535.261 523.683 535.187 523.088 535.019 522.418C534.852 523.088 534.778 523.683 534.647 524.279Z" fill="white"/>
<path d="M541.344 520.484C522.426 520 503.452 520.837 484.535 522.047C479.177 522.406 473.832 522.877 468.5 523.46C468.351 523.46 468.333 523.702 468.5 523.702C477.95 523.702 487.399 523.386 496.849 523.107C506.298 522.828 515.823 522.437 525.291 521.898C530.648 521.582 535.987 521.265 541.325 520.837C541.567 520.819 541.586 520.484 541.344 520.484Z" fill="#263238"/>
<path d="M475.42 682.987H698.639C701.094 678.486 664.487 482.89 589.187 427.81C572.446 415.608 542.851 423.458 534.61 435.344C493.24 495.055 475.42 682.987 475.42 682.987Z" fill="#3B9AC6"/>
<path d="M570.121 517.005C570.716 516.838 571.311 516.782 571.981 516.652C572.499 516.538 573.036 516.542 573.552 516.662C574.069 516.783 574.552 517.018 574.966 517.35C575.38 517.682 575.714 518.102 575.944 518.58C576.174 519.058 576.295 519.581 576.296 520.112C576.286 520.588 576.398 521.06 576.623 521.48C576.848 521.9 577.178 522.256 577.58 522.511C578.023 522.794 578.526 522.966 579.049 523.014C579.645 523.125 580.24 523.2 580.909 523.367C580.314 523.534 579.719 523.609 579.049 523.739C578.38 523.872 577.687 523.801 577.059 523.534C576.399 523.247 575.837 522.773 575.441 522.173C575.045 521.572 574.831 520.869 574.827 520.149C574.822 519.677 574.694 519.214 574.456 518.806C574.218 518.398 573.878 518.06 573.469 517.824C573.017 517.555 572.506 517.402 571.981 517.377C571.311 517.266 570.79 517.191 570.121 517.005ZM604.813 635.07C605.338 635.108 605.847 635.267 606.301 635.535C606.708 635.768 607.048 636.103 607.286 636.508C607.524 636.912 607.653 637.372 607.659 637.841C607.66 638.564 607.871 639.271 608.268 639.876C608.664 640.48 609.228 640.956 609.891 641.245C610.522 641.498 611.214 641.562 611.881 641.431C612.476 641.32 613.072 641.245 613.741 641.078C613.146 640.911 612.551 640.836 611.881 640.706C611.358 640.673 610.852 640.506 610.412 640.222C610.013 639.963 609.687 639.607 609.462 639.187C609.238 638.768 609.123 638.298 609.128 637.823C609.118 637.096 608.889 636.39 608.471 635.796C608.053 635.202 607.465 634.748 606.784 634.493C606.154 634.259 605.468 634.214 604.813 634.363C604.217 634.474 603.622 634.549 602.952 634.716C603.622 634.902 604.273 634.977 604.813 635.088V635.07ZM645.736 523.739C646.261 523.766 646.771 523.919 647.224 524.185C647.633 524.422 647.973 524.76 648.212 525.168C648.45 525.576 648.577 526.039 648.582 526.511C648.587 527.23 648.8 527.933 649.196 528.534C649.593 529.135 650.155 529.608 650.814 529.896C651.442 530.163 652.136 530.235 652.805 530.101C653.4 529.971 653.995 529.896 654.665 529.729C654.07 529.561 653.474 529.487 652.805 529.375C652.281 529.331 651.776 529.159 651.335 528.873C650.933 528.617 650.603 528.262 650.379 527.842C650.154 527.421 650.041 526.95 650.052 526.474C650.05 525.943 649.93 525.42 649.7 524.942C649.469 524.464 649.135 524.043 648.721 523.712C648.307 523.38 647.824 523.145 647.308 523.024C646.791 522.903 646.254 522.9 645.736 523.014C645.141 523.144 644.546 523.2 643.876 523.367C644.583 523.553 645.197 523.627 645.773 523.758L645.736 523.739ZM541.028 463.879C541.559 463.918 542.074 464.077 542.534 464.344C542.941 464.583 543.279 464.922 543.517 465.329C543.755 465.737 543.884 466.198 543.892 466.669C543.897 467.389 544.11 468.092 544.507 468.693C544.903 469.294 545.465 469.767 546.124 470.055C546.754 470.317 547.448 470.382 548.115 470.241C548.71 470.129 549.305 470.055 549.975 469.887C549.38 469.72 548.784 469.646 548.115 469.534C547.591 469.493 547.085 469.32 546.645 469.032C546.247 468.772 545.92 468.416 545.696 467.997C545.471 467.577 545.357 467.108 545.362 466.632C545.337 465.909 545.102 465.21 544.686 464.618C544.27 464.027 543.69 463.57 543.018 463.302C542.379 463.079 541.691 463.034 541.028 463.172C540.432 463.284 539.837 463.358 539.26 463.526C539.856 463.693 540.451 463.767 541.028 463.879ZM605.482 462.54C606.011 462.576 606.526 462.728 606.989 462.986C607.393 463.228 607.729 463.568 607.967 463.974C608.204 464.381 608.335 464.841 608.347 465.311C608.348 466.034 608.56 466.741 608.956 467.346C609.352 467.95 609.916 468.426 610.579 468.716C611.211 468.968 611.902 469.032 612.569 468.902C613.146 468.771 613.741 468.697 614.337 468.548C613.741 468.381 613.146 468.306 612.569 468.176C612.043 468.129 611.535 467.963 611.081 467.692C610.685 467.432 610.361 467.075 610.14 466.655C609.919 466.236 609.807 465.767 609.816 465.293C609.795 464.567 609.562 463.863 609.145 463.268C608.729 462.673 608.147 462.213 607.473 461.945C606.833 461.721 606.145 461.676 605.482 461.814C604.887 461.945 604.292 462.019 603.622 462.186C604.273 462.335 604.906 462.41 605.501 462.54H605.482ZM525.216 566.709C525.745 566.745 526.26 566.897 526.723 567.155C527.125 567.398 527.459 567.738 527.693 568.145C527.927 568.552 528.054 569.011 528.062 569.48C528.063 570.203 528.275 570.91 528.672 571.515C529.068 572.119 529.632 572.595 530.294 572.885C530.926 573.137 531.617 573.201 532.285 573.071C532.88 572.959 533.475 572.885 534.145 572.717C533.55 572.55 532.954 572.475 532.285 572.345C531.763 572.304 531.26 572.138 530.815 571.861C530.417 571.602 530.09 571.246 529.866 570.826C529.642 570.407 529.527 569.938 529.532 569.462C529.524 568.735 529.296 568.027 528.878 567.433C528.459 566.838 527.87 566.385 527.188 566.132C526.558 565.897 525.872 565.852 525.216 566.002C524.621 566.114 524.026 566.188 523.356 566.355C524.044 566.448 524.64 566.523 525.235 566.634L525.216 566.709ZM595.493 674.598C596.023 674.631 596.538 674.784 597 675.045C597.404 675.286 597.74 675.626 597.978 676.033C598.215 676.439 598.346 676.899 598.358 677.37C598.37 678.076 598.583 678.764 598.971 679.354C599.36 679.943 599.909 680.41 600.553 680.699C601.184 680.952 601.876 681.016 602.543 680.885C603.138 680.755 603.734 680.681 604.403 680.513C603.808 680.346 603.213 680.29 602.543 680.16C602.019 680.119 601.513 679.946 601.074 679.658C600.674 679.404 600.346 679.051 600.122 678.634C599.897 678.218 599.783 677.75 599.79 677.277C599.788 676.744 599.668 676.218 599.437 675.738C599.205 675.258 598.87 674.836 598.454 674.502C598.038 674.168 597.554 673.932 597.035 673.81C596.516 673.689 595.977 673.684 595.456 673.798C594.861 673.928 594.284 674.003 593.596 674.17C594.34 674.282 594.972 674.356 595.512 674.487L595.493 674.598ZM560.894 616.654C561.425 616.681 561.941 616.834 562.401 617.101C562.808 617.338 563.145 617.677 563.38 618.085C563.615 618.493 563.739 618.955 563.74 619.426C563.745 620.146 563.958 620.848 564.354 621.449C564.751 622.05 565.313 622.523 565.972 622.811C566.6 623.077 567.294 623.149 567.963 623.016C568.558 622.886 569.153 622.811 569.823 622.644C569.228 622.476 568.632 622.402 567.963 622.29C567.44 622.243 566.936 622.07 566.493 621.788C566.076 621.53 565.736 621.164 565.51 620.728C565.284 620.293 565.18 619.804 565.21 619.314C565.205 618.783 565.082 618.259 564.85 617.781C564.618 617.304 564.282 616.884 563.866 616.552C563.451 616.221 562.967 615.986 562.45 615.865C561.932 615.745 561.395 615.741 560.876 615.854C560.28 615.966 559.685 616.04 559.015 616.208C559.722 616.338 560.317 616.412 560.913 616.543L560.894 616.654ZM481.651 676.049C481.128 676.001 480.625 675.829 480.182 675.547C479.779 675.293 479.45 674.937 479.228 674.516C479.006 674.095 478.899 673.623 478.917 673.147C478.891 672.468 478.68 671.809 478.306 671.242C477.932 670.675 477.41 670.221 476.796 669.929C476.796 670.413 476.685 670.859 476.647 671.306C476.897 671.547 477.094 671.836 477.228 672.156C477.363 672.475 477.431 672.819 477.429 673.166C477.433 673.886 477.647 674.589 478.043 675.189C478.439 675.79 479.001 676.263 479.661 676.551C480.289 676.817 480.982 676.889 481.651 676.756C482.246 676.626 482.842 676.551 483.511 676.384C482.86 676.123 482.265 676.049 481.67 675.937L481.651 676.049ZM496.867 627.183C497.398 627.21 497.914 627.363 498.374 627.629C498.781 627.868 499.119 628.207 499.357 628.614C499.594 629.021 499.724 629.483 499.732 629.954C499.737 630.674 499.95 631.377 500.346 631.978C500.742 632.579 501.305 633.052 501.964 633.34C502.592 633.607 503.286 633.678 503.955 633.544C504.55 633.414 505.126 633.34 505.722 633.172C505.126 633.005 504.55 632.931 503.955 632.819C503.43 632.778 502.925 632.605 502.485 632.317C502.08 632.064 501.749 631.709 501.524 631.288C501.298 630.867 501.187 630.394 501.202 629.917C501.177 629.194 500.942 628.494 500.526 627.903C500.109 627.312 499.53 626.855 498.858 626.587C498.218 626.364 497.53 626.319 496.867 626.457C496.272 626.587 495.677 626.643 495.007 626.811C495.695 626.866 496.384 626.941 496.886 627.071L496.867 627.183ZM590.359 568.16C590.89 568.201 591.404 568.36 591.866 568.625C592.272 568.864 592.611 569.203 592.848 569.61C593.086 570.017 593.215 570.479 593.224 570.95C593.228 571.67 593.442 572.373 593.838 572.974C594.234 573.574 594.796 574.048 595.456 574.335C596.079 574.596 596.767 574.661 597.428 574.521C598.023 574.41 598.618 574.335 599.288 574.168C598.693 574.001 598.097 573.926 597.428 573.815C596.905 573.767 596.401 573.595 595.958 573.312C595.562 573.052 595.238 572.695 595.017 572.275C594.796 571.856 594.684 571.387 594.693 570.913C594.668 570.19 594.434 569.49 594.017 568.899C593.601 568.307 593.021 567.85 592.349 567.583C591.71 567.359 591.022 567.314 590.359 567.453C589.764 567.564 589.169 567.639 588.499 567.806C589.187 567.862 589.782 567.937 590.378 568.048L590.359 568.16ZM672.206 647.514C672.729 647.55 673.238 647.702 673.694 647.961C674.101 648.199 674.439 648.539 674.677 648.946C674.915 649.353 675.044 649.814 675.052 650.286C675.053 651.009 675.265 651.716 675.661 652.32C676.058 652.925 676.622 653.401 677.284 653.69C677.916 653.942 678.607 654.007 679.275 653.876C679.87 653.746 680.465 653.671 681.135 653.504C680.54 653.336 679.944 653.281 679.275 653.15C678.751 653.106 678.246 652.934 677.805 652.648C677.406 652.394 677.078 652.042 676.853 651.625C676.629 651.208 676.514 650.741 676.522 650.267C676.523 649.735 676.405 649.21 676.176 648.729C675.947 648.249 675.613 647.827 675.198 647.493C674.784 647.159 674.3 646.922 673.782 646.8C673.264 646.678 672.726 646.674 672.206 646.789C671.611 646.919 671.016 646.993 670.346 647.161C671.071 647.217 671.667 647.217 672.262 647.403L672.206 647.514ZM639.691 599.15C640.22 599.183 640.735 599.336 641.197 599.596C641.601 599.838 641.938 600.178 642.175 600.584C642.413 600.991 642.543 601.451 642.555 601.922C642.556 602.645 642.768 603.352 643.164 603.956C643.561 604.561 644.125 605.037 644.787 605.326C645.419 605.578 646.11 605.643 646.778 605.512C647.373 605.382 647.968 605.326 648.638 605.158C648.043 604.991 647.447 604.917 646.778 604.786C646.255 604.751 645.75 604.584 645.308 604.303C644.91 604.043 644.583 603.687 644.359 603.267C644.134 602.848 644.02 602.379 644.025 601.903C644 601.18 643.765 600.48 643.349 599.889C642.932 599.298 642.353 598.841 641.681 598.573C641.043 598.343 640.355 598.292 639.691 598.425C639.095 598.555 638.519 598.629 637.923 598.797C638.574 598.852 639.151 598.852 639.746 598.964L639.691 599.15ZM543.223 498.162C542.821 498.51 542.343 498.759 541.827 498.887C541.375 499.01 540.899 499.012 540.446 498.895C539.993 498.778 539.578 498.544 539.242 498.218C538.731 497.707 538.083 497.356 537.376 497.207C536.669 497.058 535.934 497.119 535.261 497.381C534.633 497.65 534.097 498.096 533.717 498.664C533.382 499.166 533.01 499.631 532.713 500.171C533.252 499.873 533.717 499.501 534.219 499.166C534.627 498.835 535.103 498.599 535.615 498.478C536.081 498.38 536.565 498.401 537.02 498.541C537.476 498.681 537.888 498.935 538.219 499.278C538.597 499.664 539.059 499.959 539.568 500.14C540.077 500.322 540.621 500.385 541.158 500.326C541.695 500.267 542.212 500.087 542.67 499.799C543.127 499.511 543.513 499.123 543.799 498.664C544.134 498.162 544.506 497.678 544.804 497.139C544.246 497.269 543.781 497.641 543.278 497.976L543.223 498.162ZM639.467 567.23C639.071 567.58 638.6 567.834 638.091 567.974C637.634 568.088 637.156 568.085 636.7 567.965C636.245 567.844 635.827 567.611 635.487 567.285C634.976 566.781 634.329 566.436 633.626 566.291C632.923 566.145 632.193 566.207 631.524 566.467C630.898 566.73 630.361 567.169 629.98 567.732C629.646 568.234 629.274 568.699 628.976 569.239C629.515 568.941 629.98 568.569 630.483 568.234C630.888 567.899 631.365 567.663 631.878 567.546C632.341 567.447 632.822 567.469 633.275 567.609C633.728 567.749 634.137 568.003 634.464 568.346C634.844 568.728 635.306 569.02 635.814 569.2C636.323 569.379 636.865 569.442 637.402 569.383C637.938 569.324 638.454 569.145 638.911 568.859C639.369 568.573 639.756 568.188 640.044 567.732C640.379 567.23 640.751 566.765 641.048 566.225C640.453 566.486 639.988 566.858 639.467 567.23ZM579.44 438.339C579.044 438.688 578.573 438.943 578.063 439.083C577.607 439.207 577.126 439.208 576.669 439.087C576.212 438.967 575.795 438.728 575.459 438.395C574.947 437.887 574.297 437.539 573.59 437.394C572.884 437.249 572.15 437.312 571.478 437.576C570.852 437.839 570.315 438.279 569.935 438.841C569.6 439.362 569.228 439.827 568.93 440.367C569.469 440.069 569.953 439.697 570.455 439.362C570.854 439.028 571.325 438.792 571.832 438.674C572.297 438.575 572.779 438.594 573.234 438.731C573.689 438.868 574.103 439.117 574.436 439.455C574.812 439.845 575.271 440.144 575.78 440.329C576.289 440.515 576.834 440.581 577.372 440.523C577.91 440.466 578.429 440.286 578.887 439.998C579.345 439.71 579.732 439.32 580.017 438.86C580.351 438.339 580.723 437.874 581.021 437.335C580.426 437.614 579.942 437.967 579.44 438.302V438.339ZM578.231 476.491C578.189 477.016 578.03 477.524 577.766 477.979C577.53 478.388 577.191 478.728 576.783 478.967C576.376 479.205 575.913 479.332 575.441 479.337C574.721 479.342 574.018 479.555 573.417 479.951C572.816 480.348 572.343 480.91 572.055 481.569C571.797 482.199 571.726 482.89 571.85 483.56C571.981 484.155 572.055 484.75 572.222 485.42C572.39 484.824 572.464 484.229 572.576 483.56C572.62 483.036 572.793 482.531 573.078 482.09C573.338 481.692 573.694 481.365 574.113 481.141C574.533 480.916 575.002 480.801 575.478 480.807C576.008 480.805 576.532 480.685 577.01 480.455C577.487 480.224 577.908 479.89 578.24 479.476C578.571 479.062 578.806 478.579 578.927 478.063C579.048 477.546 579.052 477.009 578.938 476.491C578.826 475.896 578.752 475.3 578.584 474.631C578.454 475.3 578.38 475.896 578.231 476.491ZM564.056 581.069C564.017 581.6 563.858 582.115 563.591 582.576C563.353 582.982 563.013 583.321 562.606 583.559C562.199 583.796 561.738 583.926 561.266 583.934C560.546 583.939 559.843 584.152 559.243 584.548C558.642 584.944 558.169 585.506 557.881 586.166C557.628 586.798 557.564 587.489 557.695 588.156C557.806 588.752 557.881 589.347 558.048 590.017C558.215 589.421 558.29 588.826 558.42 588.156C558.447 587.632 558.614 587.125 558.904 586.687C559.163 586.288 559.52 585.962 559.939 585.737C560.358 585.513 560.828 585.398 561.303 585.403C562.026 585.379 562.726 585.144 563.317 584.727C563.909 584.311 564.366 583.732 564.633 583.06C564.868 582.423 564.913 581.731 564.763 581.069C564.652 580.493 564.577 579.897 564.41 579.302C564.28 579.897 564.205 580.493 564.094 581.069H564.056ZM638.277 489.921H637.979C637.256 489.922 636.549 490.134 635.945 490.531C635.34 490.927 634.864 491.491 634.575 492.154C634.323 492.785 634.258 493.476 634.389 494.144C634.501 494.739 634.575 495.334 634.743 496.004C634.91 495.409 634.984 494.814 635.115 494.144C635.153 493.622 635.319 493.117 635.598 492.674C635.858 492.276 636.214 491.949 636.633 491.725C637.053 491.501 637.522 491.386 637.998 491.391C638.327 491.391 638.655 491.335 638.965 491.223L638.277 489.921ZM637.756 658.898C637.729 659.429 637.576 659.945 637.31 660.405C637.071 660.812 636.731 661.15 636.324 661.388C635.917 661.626 635.456 661.755 634.984 661.763C634.265 661.768 633.562 661.981 632.961 662.377C632.36 662.774 631.887 663.335 631.599 663.995C631.34 664.625 631.269 665.316 631.394 665.986C631.524 666.581 631.599 667.176 631.766 667.846C631.934 667.269 632.008 666.674 632.12 665.986C632.161 665.461 632.333 664.956 632.622 664.516C632.875 664.111 633.23 663.78 633.651 663.555C634.072 663.329 634.544 663.218 635.022 663.233C635.744 663.208 636.444 662.973 637.035 662.557C637.627 662.14 638.084 661.561 638.351 660.889C638.575 660.25 638.62 659.561 638.481 658.898C638.37 658.303 638.295 657.708 638.128 657.038C637.998 657.708 637.923 658.378 637.756 658.898ZM669.695 564.03C669.702 564.08 669.702 564.13 669.695 564.179C669.459 564.588 669.12 564.928 668.712 565.166C668.305 565.404 667.842 565.532 667.37 565.537C666.65 565.542 665.947 565.755 665.346 566.151C664.745 566.547 664.272 567.109 663.984 567.769C663.718 568.397 663.647 569.09 663.78 569.759C663.91 570.355 663.984 570.95 664.152 571.62C664.319 571.024 664.393 570.429 664.505 569.759C664.553 569.237 664.725 568.733 665.007 568.29C665.263 567.888 665.618 567.558 666.039 567.333C666.459 567.109 666.93 566.996 667.407 567.006C667.964 566.992 668.511 566.852 669.006 566.598C669.502 566.343 669.935 565.981 670.272 565.537L669.695 564.03ZM506.429 584.827C506.396 585.35 506.243 585.86 505.982 586.315C505.743 586.721 505.404 587.06 504.997 587.298C504.59 587.535 504.128 587.664 503.657 587.673C502.934 587.674 502.227 587.886 501.623 588.282C501.018 588.678 500.542 589.242 500.253 589.905C500.001 590.537 499.936 591.228 500.067 591.895C500.197 592.491 500.253 593.086 500.42 593.756C500.588 593.16 500.662 592.565 500.792 591.895C500.839 591.375 501.005 590.872 501.276 590.426C501.536 590.027 501.892 589.701 502.311 589.476C502.731 589.252 503.2 589.137 503.676 589.142C504.402 589.121 505.105 588.888 505.7 588.471C506.295 588.055 506.755 587.473 507.024 586.799C507.24 586.164 507.285 585.484 507.154 584.827C507.024 584.231 506.949 583.636 506.782 582.967C506.615 583.636 506.559 584.231 506.429 584.827ZM510.354 491.093L509.405 494.2C509.76 493.848 510.033 493.423 510.205 492.953C510.412 492.356 510.463 491.716 510.354 491.093ZM543.836 429.95C543.798 430.481 543.639 430.996 543.371 431.457C543.133 431.863 542.793 432.201 542.386 432.439C541.979 432.677 541.518 432.806 541.046 432.814C540.326 432.819 539.623 433.032 539.023 433.429C538.422 433.825 537.949 434.387 537.661 435.047C537.402 435.677 537.331 436.368 537.456 437.037C537.586 437.632 537.661 438.228 537.828 438.897C537.996 438.302 538.07 437.707 538.182 437.037C538.223 436.513 538.395 436.007 538.684 435.567C538.943 435.169 539.3 434.842 539.719 434.618C540.139 434.394 540.608 434.279 541.083 434.284C541.806 434.259 542.506 434.024 543.097 433.608C543.689 433.192 544.146 432.612 544.413 431.94C544.637 431.301 544.682 430.613 544.543 429.95C544.432 429.373 544.357 428.778 544.19 428.183C544.041 428.778 543.967 429.373 543.855 429.95H543.836ZM534.629 524.279C534.601 524.809 534.448 525.326 534.182 525.785C533.943 526.192 533.604 526.53 533.197 526.768C532.79 527.006 532.328 527.135 531.857 527.143C531.139 527.146 530.438 527.357 529.837 527.75C529.236 528.142 528.762 528.701 528.472 529.357C528.205 529.985 528.134 530.678 528.267 531.347C528.397 531.942 528.472 532.538 528.639 533.207C528.806 532.612 528.881 532.017 528.992 531.347C529.04 530.824 529.212 530.32 529.495 529.878C529.753 529.479 530.109 529.153 530.529 528.932C530.949 528.71 531.419 528.6 531.894 528.613C532.617 528.588 533.317 528.353 533.908 527.937C534.5 527.52 534.957 526.941 535.224 526.269C535.448 525.63 535.493 524.941 535.354 524.279C535.243 523.683 535.168 523.088 535.001 522.418C534.852 523.088 534.777 523.683 534.647 524.279H534.629ZM617.164 536.965C617.131 537.489 616.978 537.998 616.718 538.453C616.479 538.859 616.139 539.198 615.732 539.436C615.325 539.673 614.864 539.803 614.392 539.811C613.669 539.812 612.962 540.024 612.358 540.42C611.753 540.816 611.277 541.38 610.988 542.043C610.736 542.675 610.671 543.366 610.802 544.033C610.932 544.629 610.988 545.224 611.156 545.894C611.323 545.298 611.397 544.703 611.528 544.033C611.578 543.514 611.743 543.012 612.011 542.564C612.271 542.165 612.627 541.839 613.047 541.614C613.466 541.39 613.935 541.275 614.411 541.28C615.137 541.259 615.841 541.026 616.436 540.609C617.031 540.193 617.491 539.611 617.759 538.937C617.975 538.302 618.02 537.622 617.889 536.965C617.759 536.37 617.685 535.774 617.517 535.105C617.294 535.774 617.294 536.37 617.183 536.965H617.164ZM540.897 642.882C540.859 643.408 540.7 643.917 540.432 644.371C540.196 644.779 539.858 645.12 539.45 645.358C539.042 645.596 538.579 645.724 538.107 645.728C537.387 645.733 536.684 645.947 536.084 646.343C535.483 646.739 535.01 647.301 534.722 647.961C534.461 648.59 534.396 649.284 534.536 649.951C534.647 650.546 534.722 651.141 534.889 651.811C535.057 651.216 535.131 650.621 535.243 649.951C535.29 649.428 535.463 648.924 535.745 648.481C536.004 648.083 536.361 647.756 536.78 647.532C537.199 647.308 537.669 647.193 538.144 647.198C538.675 647.196 539.198 647.076 539.676 646.846C540.154 646.616 540.574 646.281 540.906 645.867C541.238 645.454 541.473 644.971 541.594 644.454C541.715 643.938 541.718 643.401 541.604 642.882C541.493 642.287 541.418 641.692 541.251 641.022C541.028 641.636 541.028 642.287 540.916 642.882H540.897ZM604.906 504.226C605.302 503.876 605.772 503.622 606.282 503.482C606.739 503.368 607.217 503.371 607.673 503.491C608.128 503.611 608.546 503.845 608.886 504.17C609.395 504.677 610.04 505.026 610.743 505.175C611.447 505.324 612.178 505.265 612.848 505.007C613.476 504.738 614.013 504.292 614.392 503.724C614.727 503.221 615.099 502.756 615.397 502.217C614.857 502.515 614.392 502.887 613.89 503.221C613.485 503.557 613.007 503.792 612.495 503.91C612.032 504.009 611.551 503.987 611.098 503.847C610.645 503.707 610.236 503.453 609.909 503.11C609.529 502.727 609.067 502.436 608.559 502.256C608.05 502.077 607.507 502.014 606.971 502.073C606.435 502.132 605.919 502.311 605.462 502.597C605.004 502.883 604.617 503.268 604.329 503.724C603.994 504.226 603.622 504.691 603.324 505.231C603.938 504.933 604.403 504.561 604.924 504.226H604.906ZM556.746 547.828C557.147 547.48 557.625 547.231 558.141 547.103C558.596 546.981 559.075 546.978 559.531 547.095C559.987 547.213 560.406 547.446 560.745 547.772C561.254 548.28 561.899 548.629 562.603 548.777C563.306 548.926 564.037 548.867 564.707 548.609C565.335 548.34 565.872 547.894 566.251 547.326C566.586 546.824 566.958 546.359 567.256 545.819C566.716 546.117 566.251 546.489 565.749 546.824C565.344 547.159 564.866 547.395 564.354 547.512C563.888 547.609 563.404 547.586 562.949 547.446C562.494 547.307 562.081 547.054 561.75 546.712C561.371 546.326 560.91 546.032 560.401 545.85C559.892 545.668 559.348 545.605 558.811 545.664C558.273 545.723 557.756 545.903 557.299 546.191C556.841 546.479 556.455 546.867 556.169 547.326C555.835 547.828 555.462 548.312 555.165 548.851C555.797 548.628 556.262 548.163 556.765 547.828H556.746ZM524.137 612.078C524.538 611.735 525.007 611.482 525.514 611.334C525.971 611.22 526.449 611.223 526.905 611.343C527.36 611.463 527.777 611.697 528.118 612.022C528.631 612.53 529.28 612.878 529.987 613.023C530.694 613.168 531.427 613.105 532.099 612.841C532.725 612.578 533.262 612.139 533.643 611.576C533.978 611.074 534.35 610.59 534.647 610.051C534.108 610.367 533.643 610.72 533.122 611.055C532.733 611.403 532.258 611.641 531.745 611.743C531.281 611.85 530.797 611.833 530.34 611.697C529.884 611.56 529.47 611.307 529.141 610.962C528.613 610.466 527.952 610.134 527.238 610.009C526.524 609.883 525.789 609.969 525.123 610.255C524.512 610.546 523.996 611.004 523.635 611.576C523.3 612.078 522.928 612.543 522.631 613.083C523.189 612.785 523.654 612.413 524.156 612.078H524.137ZM538.256 678.839C538.653 678.495 539.124 678.247 539.632 678.114C540.087 677.992 540.566 677.989 541.023 678.106C541.479 678.224 541.897 678.457 542.237 678.783C542.747 679.294 543.396 679.646 544.103 679.794C544.809 679.943 545.544 679.883 546.217 679.621C546.845 679.351 547.382 678.905 547.761 678.337C548.096 677.835 548.468 677.37 548.766 676.83C548.226 677.128 547.761 677.5 547.241 677.835C546.842 678.169 546.371 678.405 545.864 678.523C545.398 678.623 544.914 678.603 544.458 678.463C544.002 678.323 543.589 678.068 543.26 677.723C542.881 677.337 542.42 677.043 541.911 676.861C541.402 676.679 540.858 676.616 540.321 676.675C539.783 676.734 539.266 676.914 538.809 677.202C538.351 677.49 537.965 677.878 537.679 678.337C537.345 678.839 536.972 679.323 536.675 679.844C537.307 679.528 537.754 679.156 538.256 678.839ZM601.371 605.493C601.767 605.143 602.238 604.889 602.748 604.749C603.205 604.635 603.683 604.638 604.138 604.758C604.594 604.878 605.011 605.112 605.352 605.437C605.865 605.945 606.514 606.293 607.221 606.438C607.928 606.583 608.661 606.52 609.333 606.256C609.954 605.993 610.485 605.553 610.858 604.991C611.193 604.489 611.565 604.005 611.881 603.466C611.342 603.782 610.858 604.135 610.356 604.47C609.96 604.819 609.478 605.057 608.961 605.158C608.499 605.265 608.017 605.249 607.564 605.112C607.11 604.975 606.7 604.722 606.375 604.377C605.847 603.881 605.185 603.549 604.472 603.424C603.758 603.298 603.023 603.384 602.357 603.67C601.737 603.955 601.214 604.414 600.85 604.991C600.516 605.493 600.162 605.958 599.846 606.498C600.385 606.181 600.869 605.809 601.371 605.475V605.493ZM644.806 632.075C645.207 631.732 645.676 631.478 646.182 631.331C646.639 631.216 647.118 631.219 647.573 631.34C648.029 631.46 648.446 631.694 648.787 632.019C649.299 632.527 649.949 632.875 650.655 633.02C651.362 633.165 652.096 633.102 652.767 632.837C653.394 632.575 653.931 632.135 654.311 631.573C654.646 631.07 655.018 630.605 655.316 630.066C654.776 630.363 654.311 630.736 653.791 631.07C653.392 631.405 652.921 631.641 652.414 631.759C651.948 631.859 651.464 631.838 651.008 631.698C650.552 631.558 650.139 631.304 649.81 630.959C649.431 630.573 648.97 630.278 648.461 630.097C647.952 629.915 647.408 629.851 646.871 629.91C646.333 629.97 645.816 630.15 645.359 630.438C644.901 630.726 644.515 631.114 644.229 631.573C643.895 632.075 643.522 632.54 643.225 633.079C643.82 632.763 644.304 632.335 644.806 632.056V632.075ZM571.739 652.239C572.137 651.893 572.607 651.639 573.115 651.495C573.572 651.381 574.051 651.384 574.506 651.504C574.961 651.624 575.379 651.858 575.72 652.183C576.232 652.691 576.882 653.039 577.588 653.184C578.295 653.329 579.029 653.266 579.7 653.002C580.327 652.739 580.863 652.299 581.244 651.737C581.579 651.234 581.933 650.751 582.249 650.211C581.709 650.528 581.226 650.9 580.723 651.235C580.32 651.573 579.842 651.809 579.328 651.923C578.865 652.022 578.384 652 577.931 651.86C577.479 651.72 577.069 651.466 576.743 651.123C576.215 650.627 575.553 650.295 574.839 650.17C574.125 650.044 573.391 650.13 572.725 650.416C572.118 650.713 571.604 651.17 571.237 651.737C570.902 652.239 570.53 652.704 570.214 653.243C570.79 652.946 571.237 652.574 571.739 652.239ZM665.975 678.839C666.372 678.495 666.843 678.247 667.351 678.114C667.806 677.992 668.285 677.989 668.741 678.106C669.198 678.224 669.616 678.457 669.955 678.783C670.466 679.294 671.114 679.646 671.821 679.794C672.528 679.943 673.263 679.883 673.936 679.621C674.564 679.351 675.1 678.905 675.48 678.337C675.815 677.835 676.187 677.37 676.485 676.83C675.945 677.128 675.48 677.5 674.959 677.835C674.561 678.169 674.089 678.405 673.583 678.523C673.116 678.622 672.633 678.6 672.177 678.46C671.721 678.32 671.309 678.066 670.978 677.723C670.6 677.337 670.138 677.043 669.629 676.861C669.12 676.679 668.576 676.616 668.039 676.675C667.502 676.734 666.985 676.914 666.527 677.202C666.07 677.49 665.684 677.878 665.398 678.337C665.063 678.839 664.691 679.323 664.393 679.844C665.007 679.528 665.472 679.156 665.975 678.839ZM682.716 606.591C682.271 606.459 681.868 606.216 681.544 605.884C681.165 605.498 680.704 605.203 680.195 605.022C679.686 604.84 679.142 604.776 678.605 604.836C678.068 604.895 677.551 605.075 677.093 605.363C676.636 605.651 676.249 606.039 675.964 606.498C675.629 607 675.257 607.465 674.959 608.004C675.499 607.707 675.964 607.335 676.466 607C676.867 606.657 677.336 606.403 677.842 606.256C678.299 606.141 678.778 606.145 679.233 606.265C679.688 606.385 680.106 606.619 680.447 606.944C681.132 607.634 682.06 608.028 683.032 608.042L682.716 606.591ZM504.42 661.447C504.821 661.104 505.29 660.85 505.796 660.703C506.253 660.588 506.731 660.591 507.187 660.712C507.642 660.832 508.06 661.066 508.4 661.391C508.911 661.902 509.559 662.253 510.266 662.402C510.973 662.55 511.708 662.49 512.381 662.228C513.009 661.958 513.545 661.513 513.925 660.945C514.26 660.442 514.632 659.977 514.93 659.438C514.39 659.735 513.925 660.107 513.404 660.442C513.006 660.777 512.534 661.012 512.028 661.131C511.561 661.229 511.078 661.207 510.622 661.068C510.167 660.928 509.754 660.674 509.423 660.331C509.045 659.945 508.583 659.65 508.074 659.469C507.565 659.287 507.021 659.223 506.484 659.282C505.947 659.342 505.43 659.522 504.972 659.81C504.515 660.098 504.129 660.486 503.843 660.945C503.508 661.447 503.136 661.93 502.839 662.451C503.527 662.098 503.992 661.763 504.494 661.428L504.42 661.447ZM499.044 549.372C499.435 549.016 499.908 548.76 500.42 548.628C500.877 548.504 501.357 548.503 501.814 548.624C502.272 548.745 502.689 548.983 503.025 549.316C503.537 549.824 504.186 550.172 504.893 550.317C505.6 550.462 506.334 550.399 507.005 550.135C507.627 549.872 508.157 549.432 508.531 548.87C508.865 548.349 509.237 547.884 509.554 547.345C509.014 547.642 508.531 548.014 508.028 548.349C507.635 548.701 507.152 548.939 506.633 549.037C506.171 549.14 505.691 549.122 505.238 548.986C504.785 548.849 504.375 548.597 504.048 548.256C503.52 547.76 502.858 547.428 502.144 547.303C501.43 547.177 500.695 547.263 500.03 547.549C499.415 547.833 498.893 548.284 498.523 548.851C498.188 549.372 497.835 549.837 497.518 550.377C498.132 550.06 498.616 549.688 499.118 549.354L499.044 549.372Z" fill="white"/>
<path d="M510.893 487.373C508.847 494.813 506.863 502.254 504.941 509.695C505.182 506.439 505.536 503.203 505.964 499.966C505.964 499.78 505.703 499.687 505.647 499.966C504.855 503.981 504.413 508.058 504.327 512.15C502.02 521.141 499.862 530.163 497.853 539.215C494.04 556.571 490.636 574.075 487.808 591.616C486.227 601.531 485 611.483 483.307 621.379C483.307 621.565 483.567 621.639 483.605 621.379C485.148 612.617 487.213 603.912 489.185 595.206C491.157 586.501 492.905 577.907 494.765 569.257C498.374 551.827 502.206 534.453 505.778 517.042C507.805 507.221 509.684 497.38 511.712 487.577C511.725 487.524 511.728 487.468 511.72 487.413C511.711 487.358 511.693 487.306 511.664 487.258C511.606 487.162 511.513 487.093 511.405 487.066C511.296 487.039 511.181 487.056 511.085 487.113C510.989 487.171 510.92 487.264 510.893 487.373Z" fill="#263238"/>
<path d="M502.169 371.504C504.643 385.046 497.016 397.788 485.13 399.964C473.243 402.141 461.617 392.914 459.088 379.372C456.558 365.83 464.222 353.07 476.108 350.912C487.994 348.754 499.695 357.962 502.169 371.504Z" fill="#455A64"/>
<path d="M509.293 371.076C512.046 386.143 503.564 400.317 490.357 402.698C477.15 405.079 464.184 394.867 461.431 379.8C458.678 364.732 467.161 350.558 480.368 348.177C493.575 345.796 506.54 356.008 509.293 371.076Z" fill="#C7C7C7"/>
<path d="M546.999 477.402C560.466 477.402 577.598 452.551 582.342 434.619C582.658 433.391 567.684 391.221 565.6 382.534C565.173 380.674 514.465 408.911 514.465 408.911C514.465 408.911 524.212 425.783 527.783 440.906C528.118 442.264 533.978 477.458 546.999 477.402Z" fill="#F8D197"/>
<path d="M534.052 444.198C532.293 444.687 530.494 445.017 528.676 445.184C528.453 444.124 528.267 443.231 528.137 442.543C528.144 442.512 528.144 442.48 528.137 442.45C528.146 442.369 528.146 442.288 528.137 442.208C528.137 441.947 528.044 441.668 527.969 441.389C527.978 441.334 527.978 441.277 527.969 441.222V440.999C527.146 437.619 526.127 434.29 524.919 431.028C522.55 424.713 519.779 418.555 516.622 412.594C516.362 412.098 516.12 411.652 515.897 411.255L514.706 409.06L516.046 408.297L517.906 407.311L519.096 406.66L520.566 405.842L521.924 405.098L522.184 404.949L524.044 403.982L524.454 403.758L526.221 402.791L527.151 402.289L530.015 400.726L532.21 399.536L534.071 398.531L540.432 395.109L542.478 393.992L549.826 390.123L551.407 389.305L552.189 388.654L553.435 388.003L556.113 386.645L557.75 385.826C558.55 385.417 559.294 385.064 560.001 384.729C560.355 384.543 560.708 384.394 561.024 384.245C561.992 383.78 562.884 383.408 563.517 383.129L563.963 382.943C564.596 397.676 563.349 436.348 534.052 444.198Z" fill="#263238"/>
<path d="M550.44 317.354C562.438 334.263 570.623 391.891 561.285 408.502C547.743 432.535 516.548 444.794 493.854 426.452C471.867 408.688 462.547 333.444 473.82 317.373C490.413 293.786 532.694 292.409 550.44 317.354Z" fill="#F8D197"/>
<path d="M507.545 368.192C507.545 368.025 507.861 368.323 507.88 368.49C508.326 372.378 509.498 376.768 513.2 377.549C513.311 377.549 513.33 377.772 513.2 377.772C508.735 377.847 507.247 372.006 507.545 368.192Z" fill="#263238"/>
<path d="M510.316 363.672C516.492 362.296 518.817 374.833 513.088 376.024C507.359 377.214 505.145 364.844 510.316 363.672Z" fill="#263238"/>
<path d="M486.264 372.805C486.264 372.657 486.004 373.029 486.023 373.196C486.878 377.028 487.195 381.548 483.939 383.483C483.846 383.483 483.939 383.743 483.939 383.706C488.162 382.311 487.678 376.302 486.264 372.805Z" fill="#263238"/>
<path d="M482.079 369.42C475.792 370.108 477.615 382.627 483.456 381.994C489.297 381.362 487.343 368.843 482.079 369.42Z" fill="#263238"/>
<path d="M514.167 357.032C512.442 356.861 510.728 356.594 509.033 356.232C507.174 356.198 505.38 355.543 503.936 354.372C503.555 353.919 503.333 353.354 503.303 352.763C503.273 352.172 503.436 351.588 503.769 351.098C504.584 350.246 505.611 349.624 506.745 349.298C507.879 348.971 509.079 348.95 510.223 349.238C512.634 349.466 514.874 350.58 516.511 352.363C516.867 352.789 517.092 353.31 517.156 353.861C517.22 354.413 517.122 354.971 516.873 355.468C516.623 355.964 516.235 356.377 515.754 356.655C515.273 356.933 514.721 357.064 514.167 357.032Z" fill="#263238"/>
<path d="M476.089 364.044C477.696 363.396 479.267 362.663 480.796 361.849C482.561 361.294 484.096 360.177 485.167 358.668C485.409 358.128 485.466 357.523 485.328 356.948C485.19 356.372 484.865 355.859 484.404 355.487C483.387 354.888 482.227 354.573 481.047 354.573C479.866 354.573 478.707 354.888 477.689 355.487C475.425 356.363 473.577 358.065 472.518 360.249C472.302 360.758 472.239 361.318 472.336 361.862C472.433 362.406 472.686 362.91 473.065 363.312C473.444 363.715 473.931 363.998 474.468 364.128C475.005 364.258 475.569 364.229 476.089 364.044Z" fill="#263238"/>
<path d="M518.706 403.108C517.962 404.187 517.273 405.6 515.897 405.972C514.455 406.217 512.978 406.154 511.563 405.786C511.534 405.774 511.501 405.773 511.471 405.783C511.441 405.792 511.415 405.813 511.399 405.841C511.383 405.868 511.378 405.9 511.384 405.931C511.39 405.962 511.407 405.99 511.433 406.01C512.125 406.665 512.981 407.12 513.912 407.326C514.842 407.533 515.811 407.483 516.715 407.181C517.463 406.833 518.089 406.27 518.517 405.565C518.944 404.859 519.152 404.043 519.115 403.219C519.134 402.978 518.817 402.959 518.706 403.108Z" fill="#263238"/>
<path d="M512.511 392.375C511.813 394.077 510.769 395.617 509.447 396.897C508.125 398.178 506.553 399.171 504.829 399.815C503.334 400.405 501.761 400.775 500.16 400.913C499.85 400.94 499.539 400.94 499.23 400.913C498.945 400.932 498.659 400.932 498.374 400.913C498.161 400.913 497.953 400.845 497.782 400.717C497.611 400.59 497.486 400.41 497.425 400.206C497.415 400.076 497.415 399.945 497.425 399.815V399.48C496.793 396.523 496.235 392.04 496.235 392.04C495.249 392.784 490.189 396.299 489.985 394.737C488.348 381.716 486.525 367.318 487.641 354.055C487.66 353.973 487.706 353.9 487.772 353.847C487.838 353.795 487.919 353.766 488.004 353.766C488.088 353.766 488.17 353.795 488.236 353.847C488.302 353.9 488.348 353.973 488.366 354.055C490.431 366.481 490.227 379.167 492.18 391.668C493.972 390.384 495.939 389.363 498.021 388.636C498.467 388.636 498.932 397.471 499.323 398.774V398.922C504.42 398.625 507.898 396.411 512.121 392.151C512.325 391.779 512.679 391.984 512.511 392.375Z" fill="#263238"/>
<path d="M501.629 399.071C503.647 400.901 506.1 402.182 508.754 402.792C510.213 403.065 511.722 402.876 513.069 402.252C515.99 400.876 515.543 398.03 514.52 395.723C513.973 394.497 513.279 393.342 512.456 392.282C509.664 395.643 505.87 398.022 501.629 399.071Z" fill="#263238"/>
<path d="M508.754 402.735C510.214 403.009 511.722 402.82 513.069 402.196C515.99 400.819 515.543 397.973 514.52 395.667C511.265 396.634 508.438 399.48 508.754 402.735Z" fill="#FF99BA"/>
<path opacity="0.2" d="M548.282 341.555C552.114 346.41 560.485 358.054 563.331 358.203C560.392 339.434 555.611 323.046 548.134 314.322C545.041 310.719 541.315 307.712 537.14 305.449C538.219 310.397 544.209 336.569 548.282 341.555Z" fill="#263238"/>
<path d="M492.366 330.152C494.686 332.328 497.526 333.872 500.613 334.637C503.7 335.403 506.932 335.363 510 334.524C513.142 333.669 516.013 332.024 518.338 329.744C520.664 327.465 522.365 324.627 523.282 321.503C523.282 321.463 523.297 321.425 523.325 321.397C523.353 321.369 523.391 321.354 523.431 321.354C523.47 321.354 523.508 321.369 523.536 321.397C523.564 321.425 523.579 321.463 523.579 321.503C522.892 324.856 521.304 327.959 518.987 330.479C516.671 332.999 513.712 334.841 510.428 335.807C507.144 336.571 503.718 336.457 500.492 335.478C497.266 334.498 494.354 332.687 492.05 330.227C492.065 330.2 492.085 330.177 492.11 330.159C492.134 330.141 492.162 330.128 492.192 330.121C492.221 330.114 492.252 330.113 492.282 330.119C492.312 330.124 492.34 330.136 492.366 330.152Z" fill="#263238"/>
<path d="M506.391 282.216C517.162 281.248 527.69 286.085 532.434 292.967C535.083 296.88 536.329 301.575 535.968 306.286C535.968 306.472 535.577 306.472 535.577 306.286C535.344 302.18 534.013 298.212 531.722 294.796C529.432 291.38 526.266 288.641 522.556 286.866C518.474 284.795 513.967 283.7 509.39 283.668C504.812 283.635 500.29 284.667 496.179 286.68C492.152 288.548 488.926 291.794 487.083 295.832C486.916 296.241 486.078 296.074 486.209 295.665C488.311 288.615 496.644 283.109 506.391 282.216Z" fill="#263238"/>
<path d="M446.625 312.537C447.784 307.032 450.855 302.116 455.293 298.66C461.413 293.842 468.946 293.6 476.406 293.526C476.61 293.526 476.629 293.842 476.406 293.842C470.044 293.935 463.589 294.4 458.139 298.009C453.615 300.962 450.256 305.393 448.633 310.546C447.12 315.826 447.557 321.475 449.866 326.458C452.175 331.442 456.202 335.427 461.208 337.686C464.126 338.91 467.264 339.523 470.428 339.487C473.592 339.452 476.715 338.77 479.605 337.481C479.828 337.388 480.052 337.705 479.81 337.816C475.921 339.727 471.577 340.516 467.264 340.097C462.952 339.677 458.842 338.064 455.394 335.439C451.947 332.815 449.299 329.282 447.746 325.237C446.194 321.191 445.799 316.794 446.606 312.537H446.625Z" fill="#263238"/>
<path d="M556.448 329.668C556.448 329.668 564.391 309.207 554.588 299.162C549.008 293.432 533.103 296.13 533.103 296.13C530.604 293.213 527.551 290.821 524.123 289.091C520.694 287.36 516.956 286.326 513.125 286.047C499.36 284.541 484.33 294.251 484.33 294.251C484.33 294.251 470.732 288.447 459.59 296.669C444.076 308.128 449.136 333.221 466.826 339.453C479.27 343.787 494.003 331.51 494.003 331.51C495.565 331.51 512.4 339.155 522.649 323.734C522.649 323.734 533.308 331.175 541.251 324.162C542.914 326.527 545.264 328.324 547.982 329.309C550.701 330.294 553.656 330.419 556.448 329.668Z" fill="#806A49"/>
<path d="M515.618 385.138C513.417 385.279 511.21 384.984 509.123 384.27C507.037 383.555 505.112 382.435 503.46 380.975C501.807 379.514 500.46 377.742 499.494 375.759C498.529 373.776 497.965 371.621 497.835 369.42C497.641 366.295 498.327 363.178 499.816 360.423C501.304 357.669 503.536 355.387 506.256 353.837C508.976 352.287 512.077 351.531 515.206 351.654C518.334 351.778 521.366 352.777 523.955 354.537C526.545 356.297 528.589 358.748 529.855 361.612C531.121 364.475 531.559 367.636 531.119 370.736C530.679 373.836 529.378 376.751 527.365 379.149C525.352 381.546 522.706 383.331 519.729 384.301C518.4 384.753 517.018 385.034 515.618 385.138ZM500.104 369.271C500.282 372.138 501.307 374.888 503.047 377.173C504.788 379.458 507.167 381.176 509.884 382.109C512.6 383.043 515.533 383.15 518.31 382.417C521.088 381.684 523.586 380.144 525.488 377.992C527.391 375.84 528.613 373.172 529 370.326C529.386 367.479 528.921 364.582 527.661 362C526.402 359.419 524.405 357.268 521.924 355.821C519.442 354.374 516.588 353.694 513.721 353.869C512.514 353.948 511.321 354.173 510.168 354.539C507.096 355.534 504.441 357.52 502.62 360.186C500.799 362.853 499.914 366.048 500.104 369.271Z" fill="#3B9AC6"/>
<path d="M480.814 391.853C474.062 393.174 467.105 386.868 465.338 377.791C464.455 373.697 464.878 369.429 466.547 365.588C467.167 363.898 468.212 362.395 469.582 361.227C470.952 360.058 472.6 359.263 474.367 358.917C476.134 358.571 477.96 358.686 479.67 359.252C481.379 359.818 482.914 360.815 484.125 362.147C487.118 365.069 489.121 368.855 489.855 372.973C491.529 381.567 487.995 389.714 481.875 391.574C481.527 391.689 481.173 391.782 480.814 391.853ZM468.593 366.537C467.113 369.945 466.742 373.732 467.533 377.363C469.077 385.213 474.843 390.737 480.386 389.658C485.93 388.579 489.185 381.288 487.66 373.419C487.011 369.761 485.243 366.394 482.6 363.784C481.606 362.747 480.378 361.964 479.018 361.501C477.658 361.038 476.208 360.909 474.787 361.124C474.509 361.165 474.235 361.234 473.969 361.328C472.761 361.777 471.659 362.471 470.734 363.368C469.809 364.264 469.079 365.343 468.593 366.537Z" fill="#3B9AC6"/>
<path d="M498.765 371.206L499.862 369.253C496.942 367.635 490.561 365.942 487.436 371.113L489.297 372.304C492.18 367.672 498.504 371.076 498.765 371.206Z" fill="#3B9AC6"/>
<path d="M572.985 361.068L574.752 359.673C574.101 358.855 568.242 351.674 563.164 351.842C558.439 352.009 529.458 360.547 528.23 360.919L528.862 363.077C537.177 360.603 559.574 354.204 563.238 354.074C566.586 353.981 571.404 359.096 572.985 361.068Z" fill="#3B9AC6"/>
<path d="M553.584 365.513C553.584 365.513 560.448 344.01 569.842 345.87C579.235 347.73 577.915 376.321 569.581 382.757C568.57 383.657 567.388 384.342 566.105 384.772C564.823 385.203 563.466 385.369 562.118 385.261C560.769 385.154 559.456 384.774 558.258 384.145C557.06 383.517 556.001 382.652 555.146 381.604L553.584 365.513Z" fill="#F8D197"/>
<path d="M569.265 354.055C569.414 354.055 569.507 354.204 569.395 354.297C563.61 359.022 562.048 366.239 561.582 373.345C562.792 370.294 565.042 368.118 569.023 369.438C569.246 369.438 569.153 369.829 569.023 369.848C567.746 369.84 566.497 370.227 565.448 370.956C564.399 371.685 563.601 372.721 563.164 373.921C562.449 375.933 561.956 378.016 561.694 380.134C561.564 380.823 560.411 380.841 560.429 380.134V379.967C557.602 371.54 560.485 357.719 569.265 354.055Z" fill="#263238"/>
<path d="M563.963 349.219C563.963 349.219 562.624 319.103 552.04 303.607C540.246 286.345 507.694 274.794 484.404 294.307C484.404 294.307 518.222 285.508 540.377 306.305C550.552 315.866 554.086 351.172 554.086 351.172L563.963 349.219Z" fill="#C7C7C7"/>
<path d="M564.659 392.589C578.028 391.234 587.613 377.781 586.068 362.541C584.522 347.302 572.432 336.047 559.063 337.402C545.694 338.758 536.109 352.211 537.654 367.45C539.199 382.69 551.29 393.945 564.659 392.589Z" fill="#C7C7C7"/>
<path d="M544.636 365.849C546.031 379.558 556.895 389.677 568.911 388.45C580.928 387.222 589.541 375.131 588.164 361.44C586.788 347.749 575.906 337.63 563.87 338.839C551.835 340.048 543.241 352.158 544.636 365.849Z" fill="#455A64"/>
<path d="M617.834 447.138C653.884 485.755 739.656 630.661 711.846 657.336C684.037 684.011 529.737 648.035 486.395 627.443C473.485 621.305 522.482 540.909 537.642 539.03C550.254 537.467 614.765 566.932 616.625 563.212C618.745 559.027 604.087 532.11 588.573 476.063C570.679 411.534 601.911 430.08 617.834 447.138Z" fill="#F8D197"/>
<path d="M473.578 513.117C442.253 508.765 433.529 512.448 409.049 494.72C392.977 483.094 378.654 488.359 387.806 506.849C402.818 537.076 442.067 551.195 457.079 552.181L473.578 513.117Z" fill="#F8D197"/>
<path d="M556.82 543.289C556.82 543.289 521.608 523.739 488.683 515.777C465.896 510.29 415.02 503.835 366.34 554.041C354.788 565.964 346.771 591.114 372.702 578.52C391.117 569.554 400.083 558.319 411.765 555.064C411.765 555.064 405.385 588.286 417.755 599.373C428.585 609.081 440.091 618.008 452.186 626.085C454.168 624.205 456.032 622.205 457.767 620.095C457.767 620.095 470.323 629.396 493.928 627.126L556.82 543.289Z" fill="#F8D197"/>
<path d="M466.101 514.01C455.219 519.684 432.339 532.11 417.16 548.777C400.307 567.285 372.813 607.502 386.597 619.816C396.717 628.838 408.566 614.403 408.566 614.403C408.566 614.403 400.716 633.414 411.635 639.571C421.587 645.152 430.069 633.47 430.069 633.47C430.069 633.47 427.298 645.821 437.919 649.374C450.698 653.653 454.437 627.052 471.123 620.188C474.862 618.663 466.101 514.01 466.101 514.01Z" fill="#F8D197"/>
<path d="M439.686 563.323C430.385 570.355 413.142 591.747 408.398 613.901C408.287 614.404 408.603 614.757 408.807 614.329C417.059 596.19 427.49 579.124 439.872 563.51C439.947 563.379 439.798 563.249 439.686 563.323Z" fill="#263238"/>
<path d="M457.897 580.883C450.456 587.784 433.715 610.646 429.66 633.247C429.567 633.749 429.92 634.084 430.106 633.637C437.396 615.107 446.756 597.46 458.009 581.032C458.157 580.92 457.99 580.809 457.897 580.883Z" fill="#263238"/>
<path d="M411.746 554.859C401.534 557.872 394.893 562.876 386.262 568.866C382.037 571.886 377.646 574.668 373.111 577.199C368.944 579.45 362.824 582.78 358.378 579.32C355.923 577.367 355.96 573.74 356.518 570.986C357.109 567.808 358.378 564.795 360.239 562.151C360.332 562.021 360.108 561.853 360.015 561.983C358.256 564.287 356.834 566.83 355.793 569.536C354.683 572.04 354.358 574.823 354.863 577.516C356.369 583.096 363.01 583.877 367.698 582.333C370.506 581.31 373.204 580.008 375.752 578.446C378.226 577.013 380.626 575.488 382.988 573.888C387.843 570.596 392.512 567.043 397.33 563.713C402.008 560.566 406.886 557.726 411.932 555.212C411.979 555.188 412.014 555.145 412.03 555.095C412.046 555.044 412.041 554.989 412.016 554.943C411.991 554.896 411.949 554.861 411.899 554.845C411.848 554.829 411.793 554.834 411.746 554.859Z" fill="#263238"/>
<path d="M390.355 590.798C392.996 584.976 407.301 560.719 411.951 555.102C411.969 555.073 411.976 555.039 411.972 555.006C411.968 554.973 411.953 554.942 411.929 554.919C411.906 554.895 411.875 554.88 411.842 554.876C411.809 554.872 411.775 554.879 411.746 554.897C403.785 562.449 390.987 582.483 388.011 588.919C385.035 595.355 381.668 603.373 381.668 610.441C381.668 621.119 388.736 623.128 391.359 623.648C394.464 624.214 397.669 623.695 400.437 622.179C403.678 620.183 406.482 617.551 408.677 614.441C408.789 614.292 408.584 614.087 408.454 614.236C404.734 618.44 398.614 622.588 392.829 621.825C391.547 621.703 390.303 621.325 389.169 620.715C388.035 620.105 387.034 619.275 386.225 618.273C384.644 615.705 384.037 612.656 384.514 609.679C385.37 603.098 387.345 596.712 390.355 590.798Z" fill="#263238"/>
<path d="M429.66 633.247C428.172 634.512 425.121 638.939 420.266 639.888C418.542 640.357 416.73 640.399 414.986 640.01C413.242 639.621 411.62 638.813 410.258 637.655C407.757 635.045 406.376 631.56 406.408 627.945C406.811 623.419 407.557 618.929 408.64 614.515C408.64 614.31 408.435 614.217 408.38 614.422C406.596 619.047 405.511 623.912 405.162 628.857C405.094 630.814 405.422 632.765 406.125 634.593C406.828 636.421 407.892 638.089 409.254 639.497C410.719 640.875 412.537 641.822 414.507 642.232C416.476 642.642 418.521 642.5 420.415 641.822C422.275 641.115 428.321 637.265 430.05 633.47C430.106 633.377 429.734 633.191 429.66 633.247Z" fill="#263238"/>
<path d="M470.118 618.272C468.476 619.373 466.96 620.652 465.598 622.086C464.091 623.537 462.64 625.043 461.245 626.569C458.421 629.668 455.927 633.053 453.805 636.669C451.647 640.297 449.657 644.333 446.141 646.844C444.473 648.117 442.446 648.831 440.348 648.884C438.251 648.937 436.19 648.328 434.459 647.142C432.636 645.817 431.322 643.906 430.739 641.729C430.044 639.365 429.816 636.888 430.069 634.437C430.069 634.398 430.053 634.36 430.025 634.332C429.998 634.304 429.96 634.288 429.92 634.288C429.881 634.288 429.843 634.304 429.815 634.332C429.787 634.36 429.771 634.398 429.771 634.437C429.385 636.616 429.211 638.828 429.251 641.041C429.442 643.052 430.16 644.977 431.334 646.621C432.6 648.237 434.288 649.472 436.211 650.191C438.135 650.91 440.219 651.084 442.235 650.695C446.699 649.876 449.954 646.528 452.391 642.901C455.07 638.864 457.302 634.567 460.185 630.642C461.692 628.578 463.18 626.494 464.835 624.541C466.491 622.588 468.556 620.691 470.23 618.57C470.49 618.403 470.342 618.161 470.118 618.272Z" fill="#263238"/>
<path d="M482.6 627.387C476.77 626.746 471.015 625.55 465.412 623.816C465.226 623.816 464.984 624.262 465.152 624.355C467.861 625.597 470.699 626.533 473.615 627.146C476.553 627.777 479.569 627.966 482.563 627.704C482.712 627.685 482.786 627.406 482.6 627.387Z" fill="#263238"/>
<path d="M691.701 538.211L604.18 535.309C604.18 535.309 587.885 492.116 581.691 453.686C575.496 415.255 606.97 426.992 639.821 468.139C672.671 509.286 691.701 538.211 691.701 538.211Z" fill="#3B9AC6"/>
<path d="M374.506 689.368H387.862V680.644H374.506V689.368Z" fill="#455A64"/>
<path d="M357.188 688.791H370.544V680.067H357.188V688.791Z" fill="#455A64"/>
<path d="M339.851 688.214H353.207V679.49H339.851V688.214Z" fill="#455A64"/>
<path d="M322.533 687.638H335.889V678.914H322.533V687.638Z" fill="#455A64"/>
<path d="M305.196 687.061H318.552V678.336H305.196V687.061Z" fill="#455A64"/>
<path d="M287.878 686.485H301.234V677.76H287.878V686.485Z" fill="#455A64"/>
<path d="M270.542 685.908H283.898V677.184H270.542V685.908Z" fill="#455A64"/>
<path d="M253.224 685.331H266.58V676.607H253.224V685.331Z" fill="#455A64"/>
<path d="M235.887 684.755H249.243V676.031H235.887V684.755Z" fill="#455A64"/>
<path d="M232.613 694.391H391.136V683.788L232.613 679.361V694.391Z" fill="#37474F"/>
<path d="M77.9035 652.537H339.591L297.979 457.703H36.2731L77.9035 652.537Z" fill="#455A64"/>
<path d="M68.2121 652.537H329.918L288.288 457.703H26.6003L68.2121 652.537Z" fill="#37474F"/>
<path d="M155.64 543.829C156.439 548.266 158.737 552.294 162.15 555.24C165.563 558.186 169.884 559.871 174.39 560.012C176.425 560.077 178.447 559.679 180.306 558.85C182.165 558.02 183.812 556.78 185.122 555.222C186.433 553.664 187.373 551.83 187.873 549.857C188.372 547.883 188.418 545.822 188.006 543.829C187.198 539.396 184.897 535.374 181.486 532.43C178.075 529.486 173.759 527.797 169.256 527.645C167.221 527.581 165.199 527.978 163.34 528.808C161.481 529.638 159.834 530.878 158.524 532.436C157.213 533.993 156.273 535.828 155.773 537.801C155.274 539.774 155.228 541.835 155.64 543.829Z" fill="#263238"/>
<path d="M142.228 703.412H270.932V693.423L142.228 689.256V703.412Z" fill="#455A64"/>
<path d="M107.238 703.394H176.343L217.955 594.239H148.85L107.238 703.394Z" fill="#455A64"/>
<path d="M95.8541 703.394H164.959L206.589 594.239H137.484L95.8541 703.394Z" fill="#263238"/>
<path d="M396.028 706.072H528.732C540.06 706.072 523.672 673.835 482.34 661.428C441.007 649.021 382.914 693.981 396.028 706.072Z" fill="#37474F"/>
<path d="M448.113 706.072C447.274 702.556 446.199 699.101 444.895 695.729C443.605 692.4 442.031 689.189 440.188 686.131C438.379 683.063 436.219 680.217 433.752 677.649L431.892 675.788L429.827 674.058C428.525 672.794 426.907 671.975 425.475 670.822C428.89 672.206 432.038 674.176 434.775 676.644C437.544 679.119 439.916 682.005 441.807 685.201C443.696 688.378 445.2 691.769 446.29 695.302C447.363 698.797 447.976 702.418 448.113 706.072Z" fill="#263238"/>
<path d="M432.376 675.399C430.516 676.366 428.748 677.259 426.963 678.319C425.177 679.379 423.373 680.31 421.624 681.351C418.127 683.453 414.648 685.574 411.356 687.955C408.012 690.247 404.897 692.857 402.055 695.749C400.645 697.189 399.398 698.78 398.335 700.492C397.223 702.2 396.417 704.088 395.954 706.073C396.072 703.984 396.61 701.941 397.535 700.064C398.48 698.19 399.628 696.424 400.958 694.8C403.681 691.617 406.807 688.803 410.258 686.429C417.056 681.71 424.499 677.995 432.357 675.399H432.376Z" fill="#263238"/>
<path d="M645.178 628.856L637.291 727.891H582.826L574.939 628.856H645.178Z" fill="#3B9AC6"/>
<path opacity="0.1" d="M645.178 628.856L637.291 727.891H582.826L574.939 628.856H645.178Z" fill="black"/>
<path d="M649.866 619.927H569.786V634.362H649.866V619.927Z" fill="#455A64"/>
<path d="M644.378 619.927H575.273L579.31 603.707H640.342L644.378 619.927Z" fill="#37474F"/>
</svg>
